<svg width="42" height="42" viewBox="0 0 42 42" fill="none" xmlns="http://www.w3.org/2000/svg">
<path d="M11.8768 17.5446C11.8768 18.0592 11.9324 18.4764 12.0298 18.7823C12.141 19.0883 12.2801 19.4221 12.4748 19.7837C12.5444 19.8949 12.5722 20.0062 12.5722 20.1035C12.5722 20.2426 12.4887 20.3817 12.3079 20.5208L11.4318 21.1049C11.3066 21.1883 11.1814 21.23 11.0702 21.23C10.9311 21.23 10.792 21.1605 10.653 21.0353C10.4583 20.8267 10.2914 20.6042 10.1523 20.3817C10.0132 20.1453 9.87416 19.881 9.72118 19.5611C8.63641 20.8406 7.27349 21.4804 5.63243 21.4804C4.46422 21.4804 3.53243 21.1466 2.85098 20.479C2.16952 19.8115 1.82184 18.9214 1.82184 17.8088C1.82184 16.6267 2.23906 15.6671 3.0874 14.9439C3.93575 14.2208 5.06224 13.8592 6.49469 13.8592C6.96753 13.8592 7.45429 13.9009 7.96886 13.9704C8.48343 14.04 9.0119 14.1512 9.5682 14.2764V13.2611C9.5682 12.2042 9.34568 11.4671 8.91455 11.036C8.46952 10.6049 7.71853 10.3962 6.64767 10.3962C6.16091 10.3962 5.66025 10.4519 5.14568 10.577C4.63111 10.7022 4.13045 10.8552 3.64369 11.0499C3.42118 11.1472 3.25429 11.2029 3.15694 11.2307C3.05959 11.2585 2.99005 11.2724 2.93442 11.2724C2.73972 11.2724 2.64237 11.1333 2.64237 10.8413V10.1598C2.64237 9.93731 2.67018 9.77042 2.73972 9.67307C2.80926 9.57572 2.93442 9.47837 3.12912 9.38102C3.61588 9.13068 4.19998 8.92208 4.88144 8.75519C5.5629 8.57439 6.28608 8.49095 7.05098 8.49095C8.70594 8.49095 9.91588 8.86645 10.6947 9.61744C11.4596 10.3684 11.849 11.5088 11.849 13.0386V17.5446H11.8768ZM6.23045 19.6585C6.68939 19.6585 7.16224 19.5751 7.6629 19.4082C8.16356 19.2413 8.60859 18.9353 8.98409 18.5181C9.20661 18.2539 9.37349 17.9618 9.45694 17.628C9.54038 17.2943 9.59601 16.891 9.59601 16.4181V15.834C9.1927 15.7366 8.76157 15.6532 8.31654 15.5976C7.87151 15.5419 7.44038 15.5141 7.00926 15.5141C6.07747 15.5141 5.39601 15.6949 4.93707 16.0704C4.47813 16.4459 4.25561 16.9744 4.25561 17.6698C4.25561 18.3234 4.4225 18.8102 4.77018 19.1439C5.10396 19.4916 5.59071 19.6585 6.23045 19.6585ZM17.398 21.1605C17.1477 21.1605 16.9808 21.1188 16.8695 21.0214C16.7583 20.938 16.6609 20.7433 16.5775 20.479L13.3093 9.7287C13.2258 9.45055 13.1841 9.26976 13.1841 9.17241C13.1841 8.94989 13.2953 8.82472 13.5179 8.82472H14.8808C15.145 8.82472 15.3258 8.86645 15.4232 8.9638C15.5344 9.04724 15.6179 9.24194 15.7013 9.50618L18.0377 18.7128L20.2073 9.50618C20.2768 9.22804 20.3602 9.04724 20.4715 8.9638C20.5828 8.88035 20.7775 8.82472 21.0278 8.82472H22.1404C22.4046 8.82472 22.5854 8.86645 22.6967 8.9638C22.8079 9.04724 22.9053 9.24194 22.9609 9.50618L25.1583 18.8241L27.5642 9.50618C27.6477 9.22804 27.745 9.04724 27.8424 8.9638C27.9536 8.88035 28.1344 8.82472 28.3848 8.82472H29.6781C29.9006 8.82472 30.0258 8.93598 30.0258 9.17241C30.0258 9.24194 30.0119 9.31148 29.998 9.39492C29.9841 9.47837 29.9563 9.58962 29.9006 9.74261L26.549 20.4929C26.4655 20.7711 26.3682 20.9519 26.2569 21.0353C26.1457 21.1188 25.9649 21.1744 25.7285 21.1744H24.5324C24.2682 21.1744 24.0874 21.1327 23.9761 21.0353C23.8649 20.938 23.7675 20.7572 23.7119 20.479L21.5563 11.5088L19.4146 20.4651C19.345 20.7433 19.2616 20.9241 19.1503 21.0214C19.0391 21.1188 18.8444 21.1605 18.594 21.1605H17.398ZM35.2689 21.536C34.5457 21.536 33.8225 21.4525 33.1271 21.2857C32.4318 21.1188 31.8894 20.938 31.5278 20.7294C31.3053 20.6042 31.1523 20.4651 31.0967 20.34C31.041 20.2148 31.0132 20.0757 31.0132 19.9506V19.2413C31.0132 18.9492 31.1245 18.8102 31.3331 18.8102C31.4165 18.8102 31.5 18.8241 31.5834 18.8519C31.6669 18.8797 31.792 18.9353 31.9311 18.9909C32.404 19.1996 32.9185 19.3664 33.4609 19.4777C34.0172 19.589 34.5596 19.6446 35.1159 19.6446C35.992 19.6446 36.6735 19.4916 37.1463 19.1857C37.6192 18.8797 37.8695 18.4347 37.8695 17.8645C37.8695 17.4751 37.7444 17.1552 37.494 16.891C37.2437 16.6267 36.7708 16.3903 36.0894 16.1678L34.0728 15.5419C33.0576 15.2221 32.3066 14.7492 31.8477 14.1234C31.3887 13.5115 31.1523 12.83 31.1523 12.1068C31.1523 11.5227 31.2775 11.0082 31.5278 10.5631C31.7781 10.1181 32.1119 9.7287 32.5291 9.42274C32.9463 9.10287 33.4192 8.86645 33.9755 8.69956C34.5318 8.53267 35.1159 8.46313 35.7278 8.46313C36.0338 8.46313 36.3536 8.47704 36.6596 8.51876C36.9795 8.56049 37.2715 8.61611 37.5636 8.67174C37.8417 8.74128 38.1059 8.81082 38.3563 8.89426C38.6066 8.9777 38.8013 9.06115 38.9404 9.14459C39.1351 9.25585 39.2742 9.36711 39.3576 9.49227C39.441 9.60353 39.4828 9.75651 39.4828 9.95121V10.6049C39.4828 10.8969 39.3715 11.0499 39.1629 11.0499C39.0516 11.0499 38.8708 10.9943 38.6344 10.883C37.8417 10.5214 36.9516 10.3406 35.9642 10.3406C35.1715 10.3406 34.5457 10.4658 34.1146 10.73C33.6834 10.9943 33.4609 11.3976 33.4609 11.9678C33.4609 12.3572 33.6 12.6909 33.8781 12.9552C34.1563 13.2194 34.6708 13.4837 35.4079 13.7201L37.3828 14.3459C38.3841 14.6658 39.1073 15.1108 39.5384 15.681C39.9695 16.2512 40.1781 16.9049 40.1781 17.628C40.1781 18.2261 40.053 18.7684 39.8165 19.2413C39.5662 19.7141 39.2324 20.1313 38.8013 20.4651C38.3702 20.8128 37.8556 21.0631 37.2576 21.2439C36.6318 21.4386 35.9781 21.536 35.2689 21.536Z" fill="#1E3050"/>
<path d="M37.8974 28.2948C33.3219 31.6743 26.6742 33.4683 20.9583 33.4683C12.9477 33.4683 5.7298 30.5061 0.278143 25.5829C-0.152983 25.1935 0.236421 24.665 0.750991 24.971C6.64768 28.3922 13.9212 30.4643 21.445 30.4643C26.5212 30.4643 32.098 29.4074 37.2298 27.2378C37.9947 26.8902 38.6483 27.7385 37.8974 28.2948ZM39.8027 26.1253C39.2185 25.3743 35.9364 25.7637 34.4483 25.9445C34.0033 26.0001 33.9338 25.6107 34.3371 25.3186C36.9517 23.4829 41.249 24.0114 41.7497 24.6233C42.2503 25.2491 41.6106 29.5465 39.1629 31.6047C38.7874 31.9246 38.4258 31.7577 38.5927 31.3405C39.149 29.9637 40.3868 26.8624 39.8027 26.1253Z" fill="#1E3050"/>
</svg>
