<svg width="47" height="47" viewBox="0 0 47 47" fill="none" xmlns="http://www.w3.org/2000/svg">
<path d="M40.0271 10.5163L26.1731 2.29126C25.3469 1.8029 24.4216 1.55688 23.5 1.55688C22.5783 1.55688 21.653 1.8029 20.8269 2.29493L6.96921 10.5199C5.31686 11.5003 4.29608 13.3142 4.29608 15.2787V31.7287C4.29608 33.6931 5.31319 35.507 6.96921 36.4874L20.8232 44.7124C21.6494 45.2045 22.571 45.4468 23.4963 45.4468C24.418 45.4468 25.3433 45.2008 26.1694 44.7124L40.0271 36.4874C41.6794 35.507 42.7002 33.6895 42.7002 31.7287V15.275C42.7002 13.3142 41.6831 11.4966 40.0271 10.5163ZM29.2979 36.201L29.3199 37.3834C29.3199 37.5266 29.2281 37.6881 29.118 37.7469L28.4166 38.1508C28.3065 38.2059 28.211 38.1398 28.211 37.9966L28.2 36.8326C27.6015 37.0823 26.9919 37.141 26.6064 36.9868C26.533 36.9574 26.4999 36.8509 26.5293 36.7261L26.7826 35.6576C26.8047 35.5731 26.8487 35.4887 26.9075 35.4373C26.9295 35.4152 26.9515 35.4006 26.9736 35.3895C27.014 35.3675 27.0544 35.3638 27.0874 35.3785C27.506 35.5181 28.0384 35.452 28.5525 35.1949C29.2061 34.8645 29.643 34.1962 29.6357 33.5352C29.6283 32.9331 29.3052 32.687 28.5158 32.6797C27.5097 32.6834 26.5697 32.4851 26.555 31.0016C26.544 29.7826 27.1755 28.5121 28.1816 27.7116L28.1706 26.5183C28.1706 26.3714 28.2587 26.2099 28.3726 26.1511L29.0519 25.7178C29.162 25.6627 29.2575 25.7325 29.2575 25.8757L29.2685 27.0691C29.7679 26.8708 30.2012 26.8157 30.594 26.9075C30.6785 26.9295 30.7189 27.047 30.6822 27.1829L30.4178 28.2404C30.3958 28.3212 30.3517 28.402 30.2966 28.4534C30.2762 28.474 30.2526 28.4913 30.2269 28.5048C30.1901 28.5231 30.1571 28.5268 30.124 28.5231C29.9441 28.4827 29.5182 28.3909 28.8462 28.7288C28.1412 29.0849 27.8952 29.6981 27.8989 30.1534C27.9062 30.6969 28.1816 30.8621 29.1437 30.8768C30.4251 30.8988 30.9759 31.457 30.9906 32.7458C31.009 34.0089 30.3333 35.3712 29.2979 36.201ZM38.9696 13.9862L25.861 22.0827C24.227 23.0374 23.0226 24.1095 23.019 26.0813V42.2339C23.019 43.4126 23.4963 44.1763 24.227 44.4003C23.9883 44.4407 23.7423 44.4701 23.5 44.4701C22.7326 44.4701 21.9762 44.2608 21.3115 43.8679L7.45757 35.6429C6.10264 34.8388 5.26178 33.337 5.26178 31.725V15.275C5.26178 13.6631 6.10264 12.1613 7.45757 11.3571L21.3152 3.13212C21.9798 2.73923 22.7362 2.52993 23.5037 2.52993C24.2711 2.52993 25.0275 2.73923 25.6921 3.13212L39.5498 11.3571C40.6917 12.0364 41.4628 13.2077 41.6794 14.5259C41.2131 13.5456 40.1776 13.2812 38.9696 13.9862Z" fill="#1E3050"/>
<path d="M36.3956 33.3148L32.9441 35.3784C32.8523 35.4335 32.7862 35.4922 32.7862 35.6024V36.5057C32.7862 36.6158 32.8596 36.6636 32.9514 36.6085L36.4544 34.4788C36.5462 34.4237 36.5609 34.3246 36.5609 34.2144V33.4176C36.5609 33.3075 36.4874 33.2634 36.3956 33.3148Z" fill="#4FA847"/>
</svg>
