<svg width="31" height="31" viewBox="0 0 31 31" fill="none" xmlns="http://www.w3.org/2000/svg">
<path d="M28.3237 14.9923C28.0627 14.362 27.5035 14.2108 27.125 14.1747V10.3333C27.125 8.90854 25.9664 7.74992 24.5417 7.74992H16.7917V5.9545C17.1856 5.60059 17.4375 5.09167 17.4375 4.52075C17.4375 4.0069 17.2334 3.51408 16.87 3.15073C16.5067 2.78738 16.0139 2.58325 15.5 2.58325C14.9861 2.58325 14.4933 2.78738 14.13 3.15073C13.7666 3.51408 13.5625 4.0069 13.5625 4.52075C13.5625 5.09167 13.8144 5.60059 14.2083 5.9545V7.74992H6.45834C5.03363 7.74992 3.875 8.90854 3.875 10.3333V14.2044L3.76909 14.2121C3.44355 14.2356 3.13898 14.3815 2.91661 14.6204C2.69424 14.8593 2.57055 15.1735 2.57042 15.4999V18.0833C2.57042 18.4258 2.70651 18.7544 2.94874 18.9966C3.19097 19.2388 3.51951 19.3749 3.86209 19.3749H3.875V25.8333C3.875 27.258 5.03363 28.4166 6.45834 28.4166H24.5417C25.9664 28.4166 27.125 27.258 27.125 25.8333V19.3749C27.4676 19.3749 27.7961 19.2388 28.0383 18.9966C28.2806 18.7544 28.4167 18.4258 28.4167 18.0833V15.58C28.4315 15.3795 28.3997 15.1784 28.3237 14.9923ZM6.45834 25.8333V10.3333H24.5417L24.543 15.4948L24.5417 15.4999V18.0833L24.543 18.0897L24.5443 25.8333H6.45834Z" fill="white"/>
<path d="M10.9792 18.0834C12.0492 18.0834 12.9167 16.9268 12.9167 15.5001C12.9167 14.0733 12.0492 12.9167 10.9792 12.9167C9.90911 12.9167 9.04166 14.0733 9.04166 15.5001C9.04166 16.9268 9.90911 18.0834 10.9792 18.0834Z" fill="white"/>
<path d="M20.0208 18.0834C21.0909 18.0834 21.9583 16.9268 21.9583 15.5001C21.9583 14.0733 21.0909 12.9167 20.0208 12.9167C18.9508 12.9167 18.0833 14.0733 18.0833 15.5001C18.0833 16.9268 18.9508 18.0834 20.0208 18.0834Z" fill="white"/>
<path d="M10.3333 20.6667H20.6667V23.2501H10.3333V20.6667Z" fill="white"/>
</svg>
