<svg width="37" height="37" viewBox="0 0 37 37" fill="none" xmlns="http://www.w3.org/2000/svg">
<path d="M18.4476 34.7892C28.6364 34.7892 36.8952 28.1199 36.8952 19.8952C36.8952 14.7953 33.7332 10.2906 28.8723 7.61886C26.8944 6.51965 25.3404 5.53299 24.0469 4.71282C21.6111 3.16499 20.108 2.21069 18.4476 2.21069C16.761 2.21069 14.8601 3.41782 12.3503 5.01036C10.9363 5.92715 9.49254 6.79713 8.02129 7.61886C3.16196 10.2906 0 14.7953 0 19.8952C0 28.1199 8.25871 34.7892 18.4476 34.7892ZM16.2939 7.30128C16.8067 6.13396 17.0678 4.87165 17.0601 3.59665C17.0601 3.37465 17.37 3.3099 17.4131 3.55349C18.4245 7.83161 16.0256 9.9514 14.2512 10.6606C14.06 10.7346 13.9444 10.4756 14.0924 10.3399C15.0347 9.49579 15.7854 8.45969 16.2939 7.30128ZM19.4574 7.14403C19.3115 5.89041 18.9017 4.68193 18.2549 3.59819V3.57507C18.15 3.38544 18.3875 3.16961 18.5401 3.3099C21.5556 6.55511 20.5489 9.56136 19.3942 11.0753C19.2677 11.2325 19.0411 11.0707 19.1043 10.881C19.4834 9.67403 19.6037 8.40066 19.4574 7.14403ZM22.1877 6.28224C21.5692 5.1907 20.7245 4.24402 19.7102 3.50569V3.48411C19.5375 3.35307 19.6732 3.06169 19.8844 3.14803C23.8742 4.81919 24.1487 8.03665 23.6646 9.92365C23.6548 9.96825 23.6283 10.0074 23.5906 10.0331C23.5539 10.059 23.5086 10.0693 23.4644 10.0618C23.4202 10.0542 23.3807 10.0295 23.3547 9.99303C23.3277 9.95615 23.3156 9.91047 23.3208 9.86507C23.1982 8.60461 22.8121 7.38396 22.1877 6.28224ZM14.3683 7.14403C13.4187 7.98269 12.3965 8.31261 11.1956 8.68107C11.0167 8.68107 10.8965 8.56082 10.9566 8.40357C13.6499 7.00528 14.6088 5.86753 15.5662 4.13161C15.5662 4.13161 15.8052 3.95124 15.856 4.26265C15.856 4.72978 15.3195 6.30536 14.3683 7.14403ZM21.9703 24.4184C21.7519 25.3458 21.2477 26.1811 20.5288 26.8064C19.9966 27.3382 19.2999 27.674 18.5524 27.7592C17.7828 27.6871 17.062 27.3504 16.5128 26.8064C15.8009 26.1785 15.3033 25.3434 15.0898 24.4184C15.0829 24.3636 15.0881 24.308 15.1052 24.2555C15.1222 24.203 15.1507 24.1549 15.1885 24.1147C15.2263 24.0754 15.2727 24.0453 15.3241 24.0269C15.3754 24.0084 15.4303 24.0021 15.4845 24.0083H21.5802C21.6341 24.0023 21.6886 24.0089 21.7395 24.0276C21.7903 24.0464 21.8361 24.0767 21.8732 24.1162C21.9108 24.1562 21.9391 24.204 21.9559 24.2563C21.9727 24.3086 21.9776 24.364 21.9703 24.4184ZM13.579 21.073C13.0223 21.4537 12.3487 21.6248 11.6778 21.5559C11.007 21.487 10.3822 21.1827 9.91446 20.6968C9.43819 20.2027 9.14339 19.5618 9.07816 18.8787C9.01292 18.1955 9.1811 17.5104 9.55525 16.9352C9.87437 16.4449 10.3292 16.0641 10.8595 15.839C11.389 15.6135 11.9745 15.5544 12.5384 15.6694C13.1011 15.7851 13.6191 16.0703 14.0245 16.4865C14.4315 16.9028 14.7075 17.4362 14.8185 18.0128C14.9305 18.5913 14.8727 19.19 14.652 19.7364C14.4335 20.2773 14.0602 20.7432 13.579 21.073ZM26.6385 21.0807C26.0809 21.4589 25.4074 21.6274 24.7374 21.5563C24.0674 21.4852 23.4443 21.179 22.9785 20.6922C22.4361 20.128 22.1343 19.3751 22.1368 18.5924C22.1368 18.002 22.3064 17.4239 22.6286 16.9336C22.9477 16.4434 23.4025 16.061 23.9344 15.8375C24.4646 15.6127 25.0507 15.5546 25.6148 15.671C26.179 15.7882 26.697 16.0734 27.1025 16.4927C27.508 16.912 27.7808 17.4439 27.8918 18.0236C28.0014 18.6029 27.9409 19.2015 27.7176 19.7472C27.4973 20.2884 27.1218 20.7523 26.6385 21.0807Z" fill="#1E3050"/>
</svg>
