<svg width="30" height="30" viewBox="0 0 30 30" fill="none" xmlns="http://www.w3.org/2000/svg">
<path fill-rule="evenodd" clip-rule="evenodd" d="M13.0758 1.5625H16.9243C18.9284 1.56249 20.4996 1.56249 21.7549 1.68184C23.0343 1.80349 24.0819 2.05571 25.0055 2.62165C25.9726 3.2143 26.7858 4.02743 27.3784 4.99454C27.9443 5.91806 28.1965 6.9657 28.3181 8.24514C28.4375 9.50036 28.4375 11.0716 28.4375 13.0758V14.4097C28.4375 15.8364 28.4375 16.955 28.3759 17.8585C28.3131 18.7779 28.1835 19.543 27.8904 20.2505C27.1609 22.0116 25.7616 23.4109 24.0005 24.1404C22.9944 24.5571 21.8483 24.6496 20.2791 24.6766C19.7303 24.6861 19.3826 24.6931 19.1176 24.7224C18.87 24.7499 18.774 24.79 18.7178 24.8228C18.6585 24.8571 18.5778 24.92 18.4376 25.1122C18.2859 25.3205 18.1145 25.6081 17.8428 26.0674L17.1651 27.2121C16.1981 28.8459 13.8019 28.8459 12.8349 27.2121L12.1572 26.0674C11.8854 25.6081 11.714 25.3205 11.5623 25.1122C11.4222 24.92 11.3414 24.8571 11.2822 24.8228C11.226 24.79 11.13 24.7499 10.8824 24.7224C10.6173 24.6931 10.2697 24.6861 9.72083 24.6766C8.15173 24.6496 7.00568 24.5571 5.99946 24.1404C4.23833 23.4109 2.8391 22.0116 2.10961 20.2505C1.81654 19.543 1.68688 18.7779 1.62415 17.8585C1.56249 16.955 1.5625 15.8364 1.5625 14.4097V13.0758C1.56249 11.0716 1.56249 9.50036 1.68184 8.24514C1.80349 6.9657 2.05571 5.91806 2.62165 4.99454C3.2143 4.02743 4.02743 3.2143 4.99454 2.62165C5.91806 2.05571 6.9657 1.80349 8.24514 1.68184C9.50036 1.56249 11.0716 1.56249 13.0758 1.5625ZM8.42261 3.54841C7.28043 3.65701 6.55364 3.86529 5.97423 4.22035C5.2594 4.6584 4.6584 5.2594 4.22035 5.97423C3.86529 6.55364 3.65701 7.28043 3.54841 8.42261C3.43849 9.57875 3.4375 11.061 3.4375 13.125V14.375C3.4375 15.8439 3.43801 16.8986 3.4948 17.7309C3.55101 18.5548 3.65921 19.092 3.84189 19.533C4.38108 20.8347 5.41529 21.8689 6.717 22.4081C7.36154 22.6751 8.18383 22.7749 9.75313 22.802L9.7929 22.8026C10.2904 22.8112 10.7264 22.8186 11.0887 22.8588C11.4781 22.9019 11.8589 22.989 12.2248 23.2019C12.5878 23.413 12.8494 23.6949 13.0776 24.0079C13.2884 24.2973 13.505 24.6632 13.7505 25.0779L14.4484 26.2571C14.6894 26.6641 15.3106 26.6641 15.5515 26.2571L16.2495 25.0779C16.4949 24.6632 16.7115 24.2973 16.9224 24.0079C17.1505 23.6949 17.4123 23.413 17.7751 23.2019C18.1411 22.989 18.5219 22.9019 18.9113 22.8588C19.2736 22.8186 19.7095 22.8112 20.207 22.8026L20.2469 22.802C21.8161 22.7749 22.6385 22.6751 23.283 22.4081C24.5848 21.8689 25.6189 20.8347 26.1581 19.533C26.3408 19.092 26.449 18.5548 26.5053 17.7309C26.562 16.8986 26.5625 15.8439 26.5625 14.375V13.125C26.5625 11.061 26.5615 9.57875 26.4516 8.42261C26.343 7.28043 26.1348 6.55364 25.7796 5.97423C25.3416 5.2594 24.7406 4.6584 24.0258 4.22035C23.4464 3.86529 22.7196 3.65701 21.5774 3.54841C20.4213 3.43849 18.939 3.4375 16.875 3.4375H13.125C11.061 3.4375 9.57875 3.43849 8.42261 3.54841Z" fill="white"/>
<path d="M11.25 13.75C11.25 14.4404 10.6904 15 10 15C9.30965 15 8.75 14.4404 8.75 13.75C8.75 13.0596 9.30965 12.5 10 12.5C10.6904 12.5 11.25 13.0596 11.25 13.75Z" fill="white"/>
<path d="M16.25 13.75C16.25 14.4404 15.6904 15 15 15C14.3096 15 13.75 14.4404 13.75 13.75C13.75 13.0596 14.3096 12.5 15 12.5C15.6904 12.5 16.25 13.0596 16.25 13.75Z" fill="white"/>
<path d="M21.25 13.75C21.25 14.4404 20.6904 15 20 15C19.3096 15 18.75 14.4404 18.75 13.75C18.75 13.0596 19.3096 12.5 20 12.5C20.6904 12.5 21.25 13.0596 21.25 13.75Z" fill="white"/>
</svg>
