<svg width="45" height="41" viewBox="0 0 45 41" fill="none" xmlns="http://www.w3.org/2000/svg">
<g clip-path="url(#clip0_13_86)">
<path d="M27.6188 0.0960335C26.4235 -0.296349 25.179 0.496424 24.8345 1.85775L15.8345 37.7328C15.4899 39.0941 16.186 40.5115 17.3813 40.9038C18.5766 41.2962 19.8212 40.5035 20.1657 39.1421L29.1657 3.26713C29.5102 1.9058 28.8141 0.488416 27.6188 0.0960335ZM33.286 9.71342C32.4071 10.7144 32.4071 12.34 33.286 13.341L39.5649 20.4999L33.279 27.6589C32.4001 28.6599 32.4001 30.2855 33.279 31.2865C34.1579 32.2874 35.5852 32.2874 36.4641 31.2865L44.3391 22.3177C45.218 21.3167 45.218 19.6912 44.3391 18.6902L36.4641 9.72142C35.5852 8.72045 34.1579 8.72045 33.279 9.72142L33.286 9.71342ZM11.7212 9.71342C10.8423 8.71244 9.41492 8.71244 8.53602 9.71342L0.661016 18.6822C-0.21789 19.6831 -0.21789 21.3087 0.661016 22.3097L8.53602 31.2785C9.41492 32.2794 10.8423 32.2794 11.7212 31.2785C12.6001 30.2775 12.6001 28.6519 11.7212 27.6509L5.43524 20.4999L11.7212 13.341C12.6001 12.34 12.6001 10.7144 11.7212 9.71342Z" fill="#1E3050"/>
</g>
<defs>
<clipPath id="clip0_13_86">
<rect width="45" height="41" fill="white"/>
</clipPath>
</defs>
</svg>
