<svg width="40" height="43" viewBox="0 0 40 43" fill="none" xmlns="http://www.w3.org/2000/svg">
<g clip-path="url(#clip0_13_149)">
<path d="M38.6471 18.1343C38.5386 18.0449 37.562 17.3129 35.4642 17.3129C34.9216 17.3129 34.361 17.3665 33.8185 17.4558C33.4206 14.7239 31.1238 13.4026 31.0334 13.3312L30.4728 13.0098L30.1111 13.5276C29.659 14.224 29.3153 15.0096 29.1164 15.8131C28.7367 17.3665 28.9717 18.8306 29.7675 20.0804C28.809 20.6162 27.2537 20.7411 26.9282 20.7589H1.2478C0.578692 20.7589 0.0361377 21.2947 0.0361377 21.9553C1.51955e-05 24.1693 0.379757 26.3834 1.15743 28.4724C2.04354 30.7579 3.36377 32.4542 5.06375 33.4898C6.98071 34.6503 10.1093 35.311 13.6359 35.311C15.2273 35.311 16.8187 35.1682 18.3922 34.8824C20.5804 34.4896 22.6782 33.7397 24.6133 32.6505C26.1991 31.7429 27.6281 30.5853 28.8451 29.2224C30.8887 26.9547 32.1004 24.4193 32.9865 22.1695H33.3482C35.5726 22.1695 36.947 21.2947 37.7066 20.5447C38.2129 20.0804 38.5927 19.5091 38.864 18.8664L39.0268 18.4021L38.6471 18.1343Z" fill="#1E3050"/>
<path d="M3.63507 20.0269H7.07114C7.23395 20.0269 7.37863 19.9019 7.37863 19.7234V16.688C7.37863 16.5273 7.25201 16.3845 7.07114 16.3845H3.63507C3.47232 16.3845 3.32764 16.5094 3.32764 16.688V19.7234C3.3457 19.9019 3.47232 20.0269 3.63507 20.0269V20.0269ZM8.37324 20.0269H11.8094C11.9721 20.0269 12.1168 19.9019 12.1168 19.7234V16.688C12.1168 16.5273 11.9902 16.3845 11.8094 16.3845H8.37317C8.21043 16.3845 8.06574 16.5094 8.06574 16.688V19.7234C8.08387 19.9019 8.21049 20.0269 8.37317 20.0269M13.2018 20.0269H16.6379C16.8007 20.0269 16.9453 19.9019 16.9453 19.7234V16.688C16.9453 16.5273 16.8187 16.3845 16.6379 16.3845H13.2018C13.039 16.3845 12.8943 16.5094 12.8943 16.688V19.7234C12.8943 19.9019 13.021 20.0269 13.2018 20.0269ZM17.9581 20.0269H21.3942C21.557 20.0269 21.7016 19.9019 21.7016 19.7234V16.688C21.7016 16.5273 21.575 16.3845 21.3942 16.3845H17.9581C17.7953 16.3845 17.6506 16.5094 17.6506 16.688V19.7234C17.6506 19.9019 17.7953 20.0269 17.9581 20.0269ZM8.37324 15.6881H11.8093C11.9721 15.6881 12.1167 15.5453 12.1167 15.3846V12.3492C12.1167 12.1885 11.9901 12.0456 11.8093 12.0456H8.37317C8.21043 12.0456 8.06574 12.1706 8.06574 12.3492V15.3846C8.08387 15.5453 8.21056 15.6881 8.37324 15.6881ZM13.2018 15.6881H16.6379C16.8007 15.6881 16.9453 15.5453 16.9453 15.3846V12.3492C16.9453 12.1885 16.8187 12.0456 16.6379 12.0456H13.2018C13.039 12.0456 12.8943 12.1706 12.8943 12.3492V15.3846C12.8943 15.5453 13.021 15.6881 13.2018 15.6881ZM17.9581 15.6881H21.3942C21.557 15.6881 21.7016 15.5453 21.7016 15.3846V12.3492C21.7016 12.1885 21.5569 12.0456 21.3942 12.0456H17.9581C17.7953 12.0456 17.6506 12.1706 17.6506 12.3492V15.3846C17.6506 15.5453 17.7953 15.6881 17.9581 15.6881ZM17.9581 11.3315H21.3942C21.557 11.3315 21.7016 11.2065 21.7016 11.0279V7.99255C21.7016 7.83182 21.5569 7.68896 21.3942 7.68896H17.9581C17.7953 7.68896 17.6506 7.81396 17.6506 7.99255V11.0279C17.6506 11.1886 17.7953 11.3315 17.9581 11.3315ZM22.7505 20.0269H26.1866C26.3494 20.0269 26.4941 19.9019 26.4941 19.7234V16.688C26.4941 16.5273 26.3675 16.3845 26.1866 16.3845H22.7506C22.5877 16.3845 22.4431 16.5094 22.4431 16.688V19.7234C22.4612 19.9019 22.5878 20.0269 22.7506 20.0269" fill="#1E3050"/>
</g>
<defs>
<clipPath id="clip0_13_149">
<rect width="39.0268" height="43" fill="white"/>
</clipPath>
</defs>
</svg>
