<svg width="37" height="37" viewBox="0 0 37 37" fill="none" xmlns="http://www.w3.org/2000/svg">
<path d="M32.4805 5.94061H4.51947C2.02754 5.94061 0 7.96816 0 10.4601V26.5399C0 29.0318 2.02754 31.0594 4.51947 31.0594H32.4805C34.9725 31.0594 37 29.0318 37 26.5399V10.4606C37.0005 7.96816 34.9729 5.94061 32.4805 5.94061ZM30.2721 8.88905L18.5 16.4734L6.72785 8.88905H30.2721ZM32.4805 28.1114H4.51947C3.65312 28.1114 2.94844 27.4062 2.94844 26.5404V10.5441L17.5904 19.9595C17.6101 19.9718 17.6312 19.9801 17.6513 19.9914C17.6725 20.0032 17.6941 20.0145 17.7157 20.0253C17.8292 20.0838 17.9462 20.131 18.0656 20.1619C18.0779 20.1654 18.0902 20.1668 18.1025 20.1698C18.2337 20.2007 18.3663 20.2199 18.499 20.2199H18.5C18.501 20.2199 18.502 20.2199 18.502 20.2199C18.6346 20.2199 18.7673 20.2012 18.8985 20.1698C18.9108 20.1668 18.9231 20.1654 18.9354 20.1619C19.0548 20.131 19.1713 20.0838 19.2853 20.0253C19.3069 20.0145 19.3285 20.0032 19.3496 19.9914C19.3698 19.9801 19.3909 19.9718 19.4106 19.9595L34.0525 10.5441V26.5399C34.052 27.4062 33.3469 28.1114 32.4805 28.1114Z" fill="black"/>
</svg>
