<svg width="42" height="42" viewBox="0 0 42 42" fill="none" xmlns="http://www.w3.org/2000/svg">
<path d="M42 32.5435C40.4722 32.932 39.5272 32.5605 38.6794 31.2874L32.6497 22.9451L31.7782 21.7901L24.7367 31.315C23.9321 32.4608 23.0882 32.9595 21.5867 32.5539L30.6036 20.4501L22.2088 9.51696C23.6526 9.23608 24.6501 9.37914 25.536 10.672L31.7901 19.1179L38.0901 10.7179C38.8973 9.57208 39.7648 9.13633 41.2138 9.55896L37.9588 13.8745L33.5488 19.6166C33.0238 20.2729 33.096 20.7218 33.579 21.3557L42 32.5435ZM0.0105 20.248L0.748125 16.6202C2.75625 9.44083 10.9856 6.45752 16.6609 10.8938C19.9776 13.503 20.8018 17.1938 20.6378 21.3281H1.9425C1.66163 28.77 7.01794 33.2614 13.8469 30.9698C16.2422 30.1652 17.6531 28.2896 18.3592 25.9429C18.7176 24.7669 19.3108 24.5831 20.4159 24.9191C19.8516 27.8539 18.5784 30.3056 15.8878 31.84C11.8676 34.1368 6.12937 33.3939 3.11062 30.202C1.3125 28.35 0.569625 26.0033 0.23625 23.4938C0.18375 23.079 0.07875 22.684 0 22.2863C0.007 21.6073 0.0105 20.9283 0.0105 20.2493V20.248ZM1.97663 19.7492H18.8711C18.7609 14.368 15.4101 10.546 10.8307 10.5131C5.80387 10.4738 2.1945 14.2052 1.97663 19.7492Z" fill="#1E3050"/>
</svg>
