<svg width="20" height="20" viewBox="0 0 20 20" fill="none" xmlns="http://www.w3.org/2000/svg">
<g clip-path="url(#clip0_85_576)">
<path d="M4.72493 16.9759L8.10872 12.8727L9.65657 14.847L6.67317 18.6409C5.53059 20.0927 3.41634 18.5628 4.72493 16.9759ZM8.67675 7.63179C8.99902 6.58036 8.8509 5.68192 7.63997 4.34729L4.68098 0.787714C4.26106 0.29455 3.27148 1.01883 3.68489 1.61617L6.05143 4.53121C6.49902 5.07483 5.66731 5.79423 5.20507 5.23433L2.75716 2.22001C2.30143 1.69755 1.35905 2.38765 1.83593 2.98498C2.52604 3.81506 3.59375 5.17085 4.28385 6.00093C4.76236 6.48759 4.03483 7.20862 3.56282 6.60152L1.13281 3.60673C0.776364 3.21936 0.193682 3.46024 0.0390596 3.91272C-0.126956 4.39611 0.281572 4.74931 0.559893 5.10738L3.27148 8.60998C4.11295 9.58492 5.05371 10.1627 6.14746 9.83557C6.3151 9.78512 6.52018 9.68258 6.7399 9.54748L14.0251 18.9518C14.4173 19.458 15.1741 19.5117 15.6657 19.1032L15.778 19.0104C16.3314 18.5498 16.4209 17.7083 15.9473 17.1647L8.23242 8.30074C8.45702 8.05009 8.62141 7.81246 8.67675 7.63179ZM10.7389 9.68258L11.9385 8.2275C10.3955 4.40263 16.1133 -0.695034 18.8851 1.64872C22.2526 4.49865 17.2477 11.3671 13.7305 9.66956L12.3096 11.4746L10.7389 9.68258Z" fill="white"/>
</g>
<defs>
<clipPath id="clip0_85_576">
<rect width="20" height="20" fill="white"/>
</clipPath>
</defs>
</svg>
