<svg width="36" height="36" viewBox="0 0 36 36" fill="none" xmlns="http://www.w3.org/2000/svg">
<g clip-path="url(#clip0_13_153)">
<path d="M35.3211 16.396L19.6031 0.678902C18.6985 -0.226301 17.2304 -0.226301 16.3246 0.678902L13.0607 3.94281L17.2011 8.08323C18.1633 7.75811 19.2666 7.97621 20.0336 8.74318C20.8042 9.51507 21.0208 10.6278 20.6878 11.5931L24.678 15.5835C25.6434 15.2509 26.7573 15.466 27.5283 16.2384C28.6059 17.3155 28.6059 19.0614 27.5283 20.1393C26.4504 21.2173 24.7046 21.2173 23.6261 20.1393C22.8156 19.3279 22.6153 18.1375 23.0257 17.1389L19.3044 13.4177L19.304 23.2104C19.5738 23.3438 19.8202 23.52 20.0336 23.7321C21.1112 24.8093 21.1112 26.5553 20.0336 27.634C18.9557 28.7115 17.209 28.7115 16.1326 27.634C15.055 26.5553 15.055 24.8095 16.1326 23.7323C16.3909 23.4739 16.6978 23.2693 17.0356 23.1302V13.2463C16.6973 13.1082 16.3902 12.9034 16.1326 12.6443C15.3162 11.8289 15.1199 10.6309 15.5382 9.62842L11.4567 5.5465L0.679219 16.3233C-0.226406 17.2293 -0.226406 18.6976 0.679219 19.603L16.3974 35.3203C17.3024 36.2257 18.7702 36.2257 19.6763 35.3203L35.3209 19.6759C36.2263 18.7703 36.2264 17.3012 35.3211 16.396Z" fill="#1E3050"/>
</g>
<defs>
<clipPath id="clip0_13_153">
<rect width="36" height="36" fill="white"/>
</clipPath>
</defs>
</svg>
