<svg width="26" height="25" viewBox="0 0 26 25" fill="none" xmlns="http://www.w3.org/2000/svg">
<g clip-path="url(#clip0_37_348)">
<path d="M12.7998 0C5.73158 0 0 5.73058 0 12.7998C0 18.4552 3.66753 23.2531 8.75332 24.9456C9.39299 25.0641 9.62789 24.6679 9.62789 24.3298C9.62789 24.0247 9.61595 23.0163 9.61053 21.9468C6.04951 22.721 5.29811 20.4365 5.29811 20.4365C4.71587 18.957 3.87694 18.5637 3.87694 18.5637C2.71566 17.7693 3.96447 17.7855 3.96447 17.7855C5.24983 17.8759 5.92663 19.1046 5.92663 19.1046C7.06823 21.0614 8.92097 20.4957 9.65138 20.1687C9.76622 19.3413 10.098 18.7767 10.464 18.4571C7.62106 18.1334 4.63235 17.0358 4.63235 12.1313C4.63235 10.734 5.13237 9.59206 5.95123 8.6957C5.81832 8.37326 5.38023 7.07145 6.07521 5.30835C6.07521 5.30835 7.15005 4.96433 9.59607 6.62041C10.617 6.33672 11.712 6.19457 12.7998 6.18975C13.8876 6.19457 14.9834 6.33672 16.0064 6.62041C18.4495 4.96433 19.5228 5.30835 19.5228 5.30835C20.2195 7.07145 19.7812 8.37326 19.6483 8.6957C20.469 9.59206 20.9656 10.7339 20.9656 12.1313C20.9656 17.0475 17.9712 18.1301 15.1211 18.4469C15.5801 18.8441 15.9892 19.6231 15.9892 20.8172C15.9892 22.5298 15.9743 23.9082 15.9743 24.3298C15.9743 24.6705 16.2047 25.0696 16.8536 24.9439C21.9366 23.2495 25.5995 18.4533 25.5995 12.7998C25.5995 5.73058 19.8687 0 12.7998 0Z" fill="black"/>
<path d="M4.79397 18.2337C4.76586 18.2972 4.66567 18.3163 4.57462 18.2727C4.48176 18.2309 4.42956 18.1442 4.45968 18.0804C4.48729 18.0149 4.58747 17.9966 4.68013 18.0406C4.77319 18.0823 4.82619 18.1698 4.79397 18.2337ZM5.42359 18.7954C5.36256 18.852 5.2432 18.8257 5.16219 18.7363C5.07846 18.647 5.0628 18.5278 5.12474 18.4703C5.18768 18.4137 5.30343 18.4401 5.38735 18.5295C5.47108 18.6197 5.48734 18.7383 5.42349 18.7955M5.85556 19.5142C5.77706 19.5687 5.64876 19.5176 5.56956 19.4038C5.49115 19.29 5.49115 19.1535 5.57126 19.0988C5.65077 19.0441 5.77705 19.0933 5.85736 19.2062C5.93567 19.3219 5.93567 19.4585 5.85546 19.5143M6.58597 20.3467C6.5158 20.424 6.36643 20.4033 6.257 20.2977C6.14517 20.1945 6.11395 20.048 6.18432 19.9706C6.2553 19.8931 6.40558 19.9149 6.5158 20.0196C6.62693 20.1226 6.66076 20.2702 6.58597 20.3467ZM7.53001 20.6278C7.49919 20.728 7.35523 20.7735 7.21028 20.731C7.06552 20.6871 6.97075 20.5697 6.99997 20.4684C7.03008 20.3675 7.17464 20.32 7.3207 20.3656C7.46526 20.4092 7.56012 20.5258 7.53001 20.6278ZM8.60455 20.7469C8.60816 20.8525 8.48519 20.9401 8.333 20.942C8.17991 20.9453 8.05614 20.8599 8.05453 20.7561C8.05453 20.6495 8.17469 20.5627 8.32768 20.5602C8.47987 20.5572 8.60455 20.642 8.60455 20.7469ZM9.66001 20.7065C9.67828 20.8095 9.57248 20.9153 9.4214 20.9434C9.27282 20.9705 9.13529 20.907 9.11632 20.8049C9.09785 20.6993 9.20566 20.5935 9.35394 20.5661C9.50532 20.5398 9.64074 20.6018 9.66001 20.7065Z" fill="black"/>
</g>
<defs>
<clipPath id="clip0_37_348">
<rect width="25.699" height="25" fill="black"/>
</clipPath>
</defs>
</svg>
