<svg width="37" height="36" viewBox="0 0 37 36" fill="none" xmlns="http://www.w3.org/2000/svg">
<path d="M18.4317 0C8.25348 0 0 8.25203 0 18.4317C0 26.5755 5.28124 33.4844 12.6048 35.9217C13.5259 36.0923 13.8642 35.5218 13.8642 35.035C13.8642 34.5955 13.847 33.1434 13.8392 31.6033C8.71129 32.7183 7.62928 29.4286 7.62928 29.4286C6.79085 27.2981 5.58279 26.7318 5.58279 26.7318C3.91055 25.5877 5.70884 25.6112 5.70884 25.6112C7.55975 25.7413 8.53435 27.5106 8.53435 27.5106C10.1783 30.3285 12.8462 29.5138 13.898 29.0429C14.0634 27.8515 14.5411 27.0385 15.0682 26.5782C10.9743 26.112 6.67058 24.5316 6.67058 17.4691C6.67058 15.4569 7.39062 13.8126 8.56977 12.5218C8.37838 12.0575 7.74753 10.1829 8.7483 7.64403C8.7483 7.64403 10.2961 7.14863 13.8183 9.53339C15.2885 9.12487 16.8653 8.92018 18.4317 8.91324C19.9982 8.92018 21.5761 9.12487 23.0492 9.53339C26.5673 7.14863 28.1129 7.64403 28.1129 7.64403C29.1161 10.1829 28.4849 12.0575 28.2936 12.5218C29.4753 13.8126 30.1904 15.4568 30.1904 17.4691C30.1904 24.5484 25.8786 26.1073 21.7743 26.5635C22.4354 27.1355 23.0245 28.2573 23.0245 29.9768C23.0245 32.4429 23.0031 34.4278 23.0031 35.035C23.0031 35.5254 23.3348 36.1002 24.2692 35.9192C31.5887 33.4792 36.8633 26.5727 36.8633 18.4317C36.8633 8.25203 28.611 0 18.4317 0Z" fill="white"/>
<path d="M6.90334 26.2564C6.86286 26.3479 6.71859 26.3754 6.58748 26.3126C6.45377 26.2525 6.3786 26.1276 6.42196 26.0357C6.46172 25.9414 6.60598 25.9151 6.73941 25.9784C6.87341 26.0384 6.94974 26.1645 6.90334 26.2564ZM7.81 27.0653C7.72211 27.1469 7.55023 27.109 7.43357 26.9802C7.31301 26.8517 7.29046 26.68 7.37965 26.5971C7.47029 26.5157 7.63696 26.5538 7.75781 26.6824C7.87837 26.8124 7.90179 26.9831 7.80985 27.0655M8.43203 28.1004C8.31898 28.1789 8.13424 28.1053 8.02018 27.9414C7.90729 27.7776 7.90729 27.581 8.02264 27.5022C8.13713 27.4234 8.31898 27.4942 8.43463 27.6569C8.54738 27.8235 8.54738 28.0201 8.43188 28.1005M9.48382 29.2992C9.38278 29.4105 9.16768 29.3807 9.01011 29.2286C8.84907 29.08 8.80412 28.8691 8.90545 28.7577C9.00765 28.6461 9.22405 28.6774 9.38278 28.8282C9.5428 28.9765 9.59152 29.189 9.48382 29.2992ZM10.8432 29.7039C10.7989 29.8482 10.5916 29.9138 10.3828 29.8525C10.1744 29.7894 10.0379 29.6202 10.08 29.4744C10.1233 29.3291 10.3315 29.2607 10.5418 29.3264C10.75 29.3892 10.8866 29.5571 10.8432 29.7039ZM12.3906 29.8755C12.3958 30.0276 12.2187 30.1537 11.9995 30.1564C11.7791 30.1612 11.6009 30.0382 11.5985 29.8887C11.5985 29.7352 11.7716 29.6103 11.9919 29.6067C12.211 29.6023 12.3906 29.7245 12.3906 29.8755ZM13.9104 29.8173C13.9368 29.9656 13.7844 30.118 13.5668 30.1584C13.3529 30.1975 13.1548 30.106 13.1275 29.9589C13.1009 29.8069 13.2562 29.6546 13.4697 29.6152C13.6877 29.5773 13.8827 29.6665 13.9104 29.8173Z" fill="white"/>
</svg>
