<svg width="48" height="38" viewBox="0 0 48 38" fill="none" xmlns="http://www.w3.org/2000/svg">
<g clip-path="url(#clip0_13_118)">
<path d="M29.6949 14.4577C28.8859 14.6655 28.218 14.7769 27.5352 15.0218C26.9934 15.1628 26.4441 15.3112 25.8133 15.4745L25.7688 15.4819C25.457 15.571 25.4274 15.5784 25.1379 15.2444C24.7891 14.8511 24.5367 14.5987 24.0543 14.3612C22.5922 13.6487 21.182 13.8565 19.8684 14.7101C18.2949 15.7269 17.4859 17.2335 17.5082 19.1038C17.5305 20.9593 18.7996 22.4808 20.566 22.7331C22.1988 22.9409 23.5199 22.3917 24.559 21.2116C24.7149 21.0187 24.8559 20.8183 25.0117 20.5956C25.0711 20.5214 25.1231 20.4397 25.1824 20.3507H20.7219C20.2395 20.3507 20.1207 20.0538 20.284 19.6605C20.5809 18.9405 21.1375 17.7382 21.4641 17.137C21.5309 17.0034 21.6941 16.7065 21.9762 16.7065H29.4797C29.8137 15.712 30.3555 14.7101 31.0828 13.7601C32.7676 11.5409 34.7418 10.3831 37.5547 9.90069C39.9149 9.48506 42.134 9.71514 44.1527 11.0808C45.9785 12.3276 47.1067 14.0198 47.4109 16.239C47.8043 19.3636 46.8988 21.9019 44.6871 24.0765C43.225 25.6276 41.3547 26.5999 39.2024 27.0378C38.7867 27.112 38.3785 27.1491 37.9777 27.1862C37.7625 27.2011 37.5547 27.2233 37.3469 27.2456C35.2465 27.2011 33.3242 26.5999 31.7063 25.212C30.5707 24.2249 29.784 23.0151 29.3981 21.6124C29.1234 22.1542 28.8043 22.6812 28.359 23.1784C26.7559 25.3753 24.5813 26.7409 21.8352 27.1046C19.5641 27.4089 17.4637 26.971 15.6082 25.5831C13.9012 24.2843 12.9289 22.5772 12.6766 20.4472C12.3723 17.9237 13.1145 15.5933 14.6359 13.671C16.2836 11.5187 18.4582 10.153 21.1152 9.67061C23.2899 9.21045 25.368 9.52959 27.2457 10.8062C28.4703 11.6151 29.3461 12.721 29.925 14.0644C30.066 14.2722 29.9695 14.3909 29.6949 14.4577ZM3.58477 14.8733C3.4957 14.8733 3.46602 14.8288 3.51797 14.7546L4.00039 14.1312C4.04492 14.0644 4.16367 14.0198 4.25274 14.0198H12.5133C12.6023 14.0198 12.6246 14.0866 12.5801 14.1534L12.1867 14.7546C12.1422 14.8288 12.0234 14.8956 11.9566 14.8956L3.58477 14.8733ZM0.0890625 17.0034C0 17.0034 -0.0222656 16.9515 0.0222656 16.8847L0.51211 16.2612C0.556641 16.1944 0.667969 16.1425 0.764453 16.1425H11.3109C11.4 16.1425 11.4445 16.2167 11.4223 16.2835L11.2367 16.8401C11.2145 16.9292 11.1254 16.9812 11.0289 16.9812L0.0890625 17.0034ZM5.61836 18.9925C5.57383 19.0593 5.5961 19.1261 5.69258 19.1261L10.732 19.1483C10.7988 19.1483 10.8953 19.0815 10.8953 18.9925L10.9398 18.4358C10.9398 18.3394 10.8953 18.2726 10.7988 18.2726H6.175C6.08594 18.2726 5.98945 18.3394 5.94492 18.4136L5.61836 18.9925ZM42.8391 17.6565C42.8242 17.4636 42.8168 17.3003 42.7871 17.137C42.3715 14.8511 40.2637 13.5522 38.0668 14.0644C35.9145 14.5468 34.5266 15.9124 34.0219 18.087C33.6063 19.8905 34.482 21.7163 36.1445 22.4585C37.4211 23.0151 38.6902 22.9483 39.9149 22.3175C41.7406 21.3081 42.7352 19.8905 42.8539 17.9015C42.8465 17.8124 42.8465 17.7308 42.8391 17.6565Z" fill="#1E3050"/>
</g>
<defs>
<clipPath id="clip0_13_118">
<rect width="47.5" height="38" fill="white"/>
</clipPath>
</defs>
</svg>
