<svg width="36" height="36" viewBox="0 0 36 36" fill="none" xmlns="http://www.w3.org/2000/svg">
<path d="M4.8966 27.4368L3.5766 26.6736L18.2982 1.17603L19.6182 1.93923L4.8966 27.4368Z" fill="#1E3050"/>
<path d="M3.273 24.636H32.7186V26.1624H3.273V24.636Z" fill="#1E3050"/>
<path d="M18.5838 33.9984L3.8562 25.4953L4.6194 24.1752L19.347 32.6784L18.5838 33.9984ZM31.3782 11.8345L16.6494 3.33245L17.4126 2.01245L32.1402 10.5156L31.3782 11.8345Z" fill="#1E3050"/>
<path d="M4.623 11.8295L3.8598 10.5095L18.6006 2.00391L19.3638 3.32391L4.623 11.8295Z" fill="#1E3050"/>
<path d="M31.107 27.4368L16.383 1.93678L17.703 1.17358L32.427 26.6736L31.107 27.4368ZM4.4406 9.49678H5.967V26.5032H4.4406V9.49678ZM30.0342 9.49678H31.5606V26.5032H30.0342V9.49678Z" fill="#1E3050"/>
<path d="M18.3246 33.3515L17.6586 32.1971L30.4686 24.8015L31.1346 25.9559L18.3246 33.3515Z" fill="#1E3050"/>
<path d="M33.5826 26.9999C33.1562 27.7363 32.4553 28.2737 31.6334 28.4943C30.8115 28.715 29.9357 28.6009 29.1978 28.1771C28.4614 27.7507 27.924 27.0497 27.7034 26.2279C27.4827 25.406 27.5968 24.5302 28.0206 23.7923C28.447 23.0559 29.1479 22.5185 29.9698 22.2978C30.7917 22.0772 31.6675 22.1913 32.4054 22.6151C33.9498 23.5067 34.4742 25.4651 33.5814 26.9999M7.971 12.2087C7.54457 12.9451 6.84366 13.4825 6.0218 13.7031C5.19993 13.9238 4.32412 13.8097 3.5862 13.3859C2.84946 12.9595 2.31183 12.2583 2.09117 11.4362C1.8705 10.614 1.9848 9.73791 2.409 8.99989C2.83542 8.26347 3.53634 7.72608 4.3582 7.50543C5.18007 7.28478 6.05588 7.39886 6.7938 7.82269C7.53022 8.24911 8.06761 8.95002 8.28825 9.77189C8.5089 10.5938 8.39482 11.4708 7.971 12.2087ZM2.4186 26.9999C1.99478 26.262 1.88069 25.3861 2.10134 24.5643C2.32199 23.7424 2.85938 23.0415 3.5958 22.6151C4.33372 22.1913 5.20953 22.0772 6.0314 22.2978C6.85326 22.5185 7.55417 23.0559 7.9806 23.7923C8.40442 24.5302 8.5185 25.406 8.29785 26.2279C8.07721 27.0497 7.53982 27.7507 6.8034 28.1771C5.259 29.0591 3.2994 28.5359 2.4186 26.9999ZM28.0302 12.2099C27.6064 11.472 27.4923 10.5962 27.7129 9.77429C27.9336 8.95242 28.471 8.25151 29.2074 7.82509C29.9453 7.40126 30.8211 7.28718 31.643 7.50783C32.4649 7.72848 33.1658 8.26587 33.5922 9.00229C34.016 9.7402 34.1301 10.616 33.9095 11.4379C33.6888 12.2597 33.1514 12.9607 32.415 13.3871C31.6771 13.8109 30.8013 13.925 29.9794 13.7043C29.1575 13.4837 28.4566 12.9463 28.0302 12.2099ZM18.0006 35.9999C17.3659 35.9999 16.7455 35.8117 16.2178 35.459C15.6901 35.1064 15.2788 34.6052 15.0359 34.0188C14.7931 33.4324 14.7296 32.7871 14.8535 32.1646C14.9775 31.5422 15.2832 30.9704 15.7321 30.5217C16.1809 30.073 16.7528 29.7675 17.3753 29.6438C17.9979 29.5201 18.6431 29.5838 19.2294 29.8269C19.8157 30.0699 20.3168 30.4814 20.6692 31.0092C21.0217 31.5371 21.2096 32.1576 21.2094 32.7923C21.2072 33.6425 20.8684 34.4573 20.267 35.0584C19.6657 35.6595 18.8508 35.998 18.0006 35.9999ZM18.0006 6.41749C17.579 6.41812 17.1615 6.33555 16.7719 6.17452C16.3823 6.01348 16.0283 5.77715 15.7302 5.47906C15.4321 5.18097 15.1958 4.82698 15.0348 4.43739C14.8737 4.04779 14.7912 3.63025 14.7918 3.20869C14.7918 2.35782 15.1298 1.5418 15.7315 0.940148C16.3331 0.338494 17.1491 0.000488281 18 0.000488281C18.8509 0.000488281 19.6669 0.338494 20.2685 0.940148C20.8702 1.5418 21.2082 2.35782 21.2082 3.20869C21.2087 3.63005 21.126 4.04737 20.965 4.43674C20.804 4.82612 20.5677 5.17991 20.2698 5.47786C19.9718 5.77581 19.618 6.01206 19.2287 6.17309C18.8393 6.33412 18.422 6.41796 18.0006 6.41749Z" fill="#1E3050"/>
</svg>
