<svg width="39" height="39" viewBox="0 0 39 39" fill="none" xmlns="http://www.w3.org/2000/svg">
<path d="M38.9969 30.1315V28.2385C38.9969 27.8866 38.4049 27.5511 37.3425 27.2486L37.3681 24.8927C37.3668 21.259 36.2398 17.7149 34.142 14.7479C32.0345 11.7678 29.0638 9.50554 25.6306 8.26624L25.5544 7.79397C25.5152 7.541 25.4046 7.30446 25.2357 7.11208C25.0658 6.919 24.8449 6.77779 24.5983 6.70472C21.2981 5.74524 17.793 5.74524 14.4928 6.70472C14.2447 6.77754 14.0235 6.918 13.8529 7.11147C13.6832 7.30339 13.5721 7.53993 13.5327 7.79306L13.4596 8.23333C10.0054 9.4609 7.01289 11.7221 4.8887 14.7098C2.775 17.6845 1.63876 21.2429 1.63738 24.8921V27.258C0.589556 27.5597 0.00546991 27.8915 0.00546991 28.2409V30.1337C-0.0113947 30.2448 0.0128741 30.3582 0.0737199 30.4527C0.596341 30.0664 1.19524 29.796 1.83055 29.6593C3.45133 29.2681 5.09831 28.9948 6.75856 28.8415C7.22347 28.7894 7.69412 28.8361 8.13974 28.9785C8.58535 29.1209 8.99587 29.3558 9.34445 29.6678C10.6321 30.8323 12.3066 31.4766 14.0427 31.4755H24.9609C26.697 31.4765 28.3714 30.8316 29.6583 29.6663C30.0062 29.3526 30.4165 29.1161 30.8622 28.972C31.308 28.828 31.7791 28.7798 32.2448 28.8305C33.9045 28.9836 35.5511 29.2559 37.1719 29.6452C37.7739 29.7592 38.3429 30.0062 38.8373 30.3683C38.8647 30.3957 38.8982 30.4201 38.9217 30.4457C38.983 30.3531 39.0099 30.2418 38.9969 30.1315Z" fill="#1E3050"/>
<path d="M9.36975 26.1477C9.35505 25.7118 9.34723 25.2758 9.34629 24.8397C9.35177 18.2593 10.9038 12.3578 13.4605 8.23633C10.0064 9.46365 7.01396 11.7245 4.88962 14.7119C2.77592 17.6858 1.63926 21.2435 1.63708 24.8921V27.258C4.17643 26.6578 6.76412 26.2862 9.36975 26.1477Z" fill="#1A2740"/>
<path d="M37.3666 24.8921C37.3701 20.7778 35.9267 16.7934 33.2889 13.636C34.4335 17.2583 35.0038 21.0375 34.9793 24.8363C34.9793 25.4777 34.9623 26.1108 34.9327 26.7406C35.7426 26.8651 36.5449 27.0341 37.3361 27.247L37.3657 24.8918L37.3666 24.8921Z" fill="#1A2740"/>
<path d="M37.1719 29.6521C35.551 29.2609 33.9039 28.9875 32.2436 28.834C31.7783 28.7826 31.3074 28.83 30.8618 28.9731C30.4161 29.1162 30.0057 29.3519 29.6574 29.6646C28.3701 30.8297 26.6954 31.4743 24.9591 31.4729H14.0452C12.31 31.4735 10.6365 30.8292 9.34965 29.6652C9.0019 29.3511 8.59164 29.1141 8.14582 28.9698C7.7 28.8255 7.22869 28.7771 6.76285 28.8279C5.10266 28.9814 3.45572 29.2545 1.83483 29.6451C1.20055 29.7836 0.602435 30.0538 0.0792236 30.4382C0.907974 31.6956 9.29115 33.0146 19.5055 33.0146C29.7207 33.0146 38.1003 31.6907 38.9305 30.4391C38.9016 30.4141 38.8696 30.3897 38.8452 30.3623C38.3449 30.0082 37.7742 29.766 37.1719 29.6521Z" fill="#1A2740"/>
<path d="M19.5 11.5421L15.3197 18.5962L19.5 21.1687V11.5415V11.5421Z" fill="#1A2740"/>
<path d="M19.5015 11.5447V21.1664L23.6806 18.5988L19.5015 11.5447ZM19.5015 22.5637V25.9186C19.5795 25.8077 23.6806 19.9921 23.6806 19.9894L19.5015 22.5643V22.5637Z" fill="#2D436F"/>
<path d="M19.5015 22.5651L15.3212 19.9941L19.5015 25.9209V22.5633V22.5651Z" fill="#1A2740"/>
</svg>
