<svg width="32" height="36" viewBox="0 0 32 36" fill="none" xmlns="http://www.w3.org/2000/svg">
<g clip-path="url(#clip0_13_100)">
<path d="M0 2.25V33.75H31.5V2.25H0ZM17.1422 26.8172C17.1422 29.8828 15.3422 31.282 12.7195 31.282C10.35 31.282 8.97891 30.0586 8.27578 28.575L10.6875 27.1195C11.1516 27.9422 11.5734 28.6383 12.593 28.6383C13.5633 28.6383 14.182 28.2586 14.182 26.775V16.7133H17.1422V26.8172ZM24.1453 31.282C21.3961 31.282 19.6172 29.9742 18.7523 28.2586L21.1641 26.8664C21.7969 27.9 22.6266 28.6664 24.082 28.6664C25.3055 28.6664 26.093 28.0547 26.093 27.2039C26.093 26.1914 25.2914 25.8328 23.9344 25.2352L23.1961 24.9187C21.0586 24.0117 19.6453 22.8656 19.6453 20.4539C19.6453 18.232 21.3398 16.5445 23.9766 16.5445C25.8609 16.5445 27.2109 17.1984 28.1812 18.9141L25.875 20.3906C25.3687 19.4836 24.8203 19.125 23.9695 19.125C23.1047 19.125 22.5562 19.6734 22.5562 20.3906C22.5562 21.2766 23.1047 21.6352 24.3773 22.1906L25.1156 22.507C27.6328 23.5828 29.0461 24.6867 29.0461 27.1617C29.0461 29.8195 26.9508 31.282 24.1453 31.282Z" fill="#1E3050"/>
</g>
<defs>
<clipPath id="clip0_13_100">
<rect width="31.5" height="36" fill="white"/>
</clipPath>
</defs>
</svg>
