<svg width="36" height="36" viewBox="0 0 36 36" fill="none" xmlns="http://www.w3.org/2000/svg">
<path d="M30.375 32.6429H5.625C4.38188 32.6429 3.375 31.6349 3.375 30.3929V15.7679C3.375 14.5259 4.38188 13.5179 5.625 13.5179L6.81525 13.5246C6.81525 11.6864 7.37438 10.4939 8.49375 9.24177C9.612 7.99077 11.0014 7.36527 12.6585 7.36527C13.4449 7.36527 14.3167 7.49802 15.2719 7.76352C15.2719 7.76352 17.3498 8.45427 18.792 8.45427C20.9936 8.45427 22.4944 7.48902 23.2931 5.55852C23.6677 4.6304 24.0491 4.16577 24.4373 4.16577C24.993 4.16577 25.272 4.42452 25.272 4.94315C25.272 5.86002 24.7759 6.87477 23.7847 7.98402C22.455 9.49265 20.817 10.2475 18.8719 10.2475C17.361 10.2475 14.7724 9.53877 14.7724 9.53877C13.7205 9.28452 12.9713 9.1574 12.5246 9.1574C11.448 9.1574 10.5266 9.6164 9.75938 10.5366C8.99213 11.4569 8.6085 12.2691 8.6085 13.5393L30.375 13.5179C31.617 13.5179 32.625 14.5259 32.625 15.7679V30.3929C32.625 31.6349 31.617 32.6429 30.375 32.6429ZM31.5 15.7679C31.5 15.1458 30.996 14.6429 30.375 14.6429H5.625C5.00288 14.6429 4.5 15.1458 4.5 15.7679V30.3929C4.5 31.0139 5.00288 31.5179 5.625 31.5179H30.375C30.996 31.5179 31.5 31.0139 31.5 30.3929V15.7679ZM22.5034 23.6553H29.2736V25.8839H22.5034V23.6553ZM24.7365 20.2803H29.2601V22.5089H24.7365V20.2803ZM27.0079 16.8929H29.2612V19.1924H27.0079V16.8929ZM23.6666 16.8929H25.8727V19.1924H23.6666V16.8929ZM21.384 20.2803H23.6126V22.5089H21.384V20.2803ZM20.2781 16.8929H22.5304V19.1924H20.2781V16.8929ZM17.9483 20.2803H20.2477V22.5089H17.9483V20.2803ZM16.8435 16.8929H19.143V19.1924H16.8435V16.8929ZM13.5022 16.8929H15.7781V19.1924H13.5022V16.8929ZM10.044 16.8929H12.3671V19.1924H10.044V16.8929ZM6.75 16.8929H9.0495V19.1924H6.75V16.8929ZM13.5202 22.51H6.75V20.2814H13.5202V22.51ZM9.0495 29.3095H6.75V27.01H9.0495V29.3095ZM6.76238 23.6553H11.286V25.8839H6.76238V23.6553ZM12.4144 29.3095H10.1137V27.01H12.4144V29.3095ZM18.0045 25.885H15.7039V23.6564H18.0045V25.885ZM14.6396 25.885H12.3401V23.6564H14.6396V25.885ZM16.884 22.51H14.5834V20.2814H16.884V22.51ZM21.3682 23.6553V25.8839H19.1396V23.6553H21.3682ZM22.5079 29.3095H13.5495V27.01H22.5079V29.3095ZM25.8727 29.3095H23.5721V27.01H25.8727V29.3095ZM29.2365 29.3095H27.0079V27.01H29.2365V29.3095Z" fill="white"/>
</svg>
