<svg width="43" height="43" viewBox="0 0 43 43" fill="none" xmlns="http://www.w3.org/2000/svg">
<path d="M22.4406 0C22.1719 0 21.9031 0 21.6344 0C14.1094 0.5375 16.125 8.6 15.9906 11.2875C15.8562 13.3031 15.4531 14.7812 14.1094 16.6625C12.4969 18.5437 10.3469 21.6344 9.27187 24.725C8.73437 26.2031 8.59999 27.8156 8.73437 29.1594C8.59999 29.1594 8.59999 29.2937 8.46562 29.4281C8.06249 29.9656 7.65937 30.5031 7.25624 30.9062C6.85312 31.3094 6.44999 31.4437 5.77812 31.5781C5.24062 31.8469 4.56874 32.1156 4.16562 32.7875C4.03124 33.325 4.03124 33.7281 4.03124 33.9969C4.03124 34.4 4.03124 34.6687 4.16562 34.9375C4.29999 35.6094 4.43437 36.2812 4.29999 36.6844C3.89687 37.8937 3.76249 38.7 4.16562 39.3719C4.43437 39.9094 5.10624 40.1781 5.77812 40.4469C7.25624 40.85 9.13749 40.7156 10.75 41.5219C12.3625 42.3281 14.1094 42.7313 15.4531 42.3281C16.3937 42.0594 17.2 41.5219 17.6031 40.5813C18.6781 40.5813 19.7531 40.0437 21.6344 40.0437C22.8437 39.9094 24.4562 40.5813 26.2031 40.4469C26.2031 40.7156 26.3375 40.85 26.4719 40.9844C27.1437 42.3281 28.4875 43 29.8312 42.8656C31.175 42.7312 32.6531 41.925 33.8625 40.5813C34.9375 39.2375 36.8187 38.7 38.1625 37.8938C38.8344 37.4906 39.2375 37.0875 39.3719 36.4156C39.3719 35.7438 38.9687 34.9375 38.1625 33.9969V33.8625C37.8937 33.4594 37.7594 32.9219 37.4906 32.25C37.3562 31.5781 37.2219 30.9063 36.55 30.3688C36.4156 30.2344 36.2812 30.2344 36.1469 30.1C36.0125 29.9656 35.8781 29.9656 35.7437 29.9656C36.55 27.6812 36.1469 25.3969 35.475 23.3812C34.5344 20.8281 32.7875 18.6781 31.5781 17.2C30.1 15.4531 28.7562 13.7063 28.7562 11.1531C28.7562 7.12188 29.1594 0 22.4406 0ZM23.3812 6.04688C23.7844 6.04688 24.0531 6.18125 24.4562 6.45C24.8594 6.71875 24.9937 6.9875 25.2625 7.39062C25.3969 7.79375 25.5312 8.19687 25.5312 8.73438C25.5312 9.1375 25.3969 9.54063 25.2625 9.94375C25.1281 10.2125 24.9937 10.3469 24.8594 10.4813C24.8594 10.4813 24.725 10.4812 24.725 10.3469C24.5906 10.2125 24.3219 10.2125 24.1875 10.0781C24.0531 10.0781 23.9187 9.94375 23.7844 9.94375C23.9187 9.80938 24.0531 9.675 24.0531 9.54062C24.1875 9.27187 24.1875 9.1375 24.1875 8.86875C24.1875 8.6 24.1875 8.33125 24.0531 8.19687C23.9187 7.92812 23.9187 7.79375 23.7844 7.65937C23.65 7.525 23.5156 7.39062 23.2469 7.39062C23.1125 7.39062 22.9781 7.39062 22.8437 7.65937C22.7094 7.79375 22.575 8.0625 22.4406 8.19687C22.3062 8.46562 22.3062 8.73437 22.3062 8.86875C22.3062 9.00312 22.3062 9.1375 22.3062 9.40625C21.9031 9.27187 21.5 9.1375 21.2312 9.00312C21.2312 8.86875 21.2312 8.73438 21.2312 8.6C21.2312 8.0625 21.3656 7.65938 21.5 7.25625C21.6344 6.85313 21.9031 6.58437 22.3062 6.31562C22.575 6.18125 22.9781 6.04688 23.3812 6.04688ZM18.0062 6.18125C18.275 6.18125 18.5437 6.31563 18.8125 6.45C19.0812 6.71875 19.35 6.9875 19.4844 7.25625C19.6187 7.65938 19.7531 7.92813 19.7531 8.46563C19.7531 8.73438 19.7531 8.86875 19.7531 9.00312V9.1375H19.6187C19.35 9.27188 19.0812 9.40625 18.8125 9.54062C18.8125 9.40625 18.8125 9.27187 18.8125 9.00312C18.8125 8.73437 18.6781 8.6 18.6781 8.46563C18.6781 8.33125 18.5437 8.0625 18.4094 7.92813C18.275 7.79375 18.1406 7.79375 18.1406 7.79375C18.0062 7.79375 17.8719 7.92812 17.8719 8.0625C17.6031 8.19688 17.4687 8.33125 17.4687 8.46563C17.4687 8.6 17.4687 8.86875 17.4687 9.00312C17.4687 9.27187 17.4687 9.40625 17.6031 9.54062C17.7375 9.80937 17.7375 9.94375 17.8719 10.0781C17.7375 10.2125 17.6031 10.2125 17.6031 10.3469C17.4687 10.3469 17.4687 10.4813 17.3344 10.4813C17.2 10.2125 16.9312 10.0781 16.7969 9.80938C16.6625 9.40625 16.5281 9.00313 16.5281 8.6C16.5281 8.19688 16.5281 7.79375 16.6625 7.39062C16.7969 6.9875 16.9312 6.71875 17.2 6.45C17.4687 6.31563 17.7375 6.18125 18.0062 6.18125ZM20.5594 9.27188C21.0969 9.27188 21.9031 9.40625 22.7094 9.94375C23.2469 10.3469 23.65 10.4812 24.5906 10.75C24.9937 11.0188 25.2625 11.2875 25.3969 11.4219V11.2875C25.5312 11.5562 25.5312 11.825 25.3969 12.0938C25.1281 12.6313 24.4562 13.3031 23.5156 13.5719C22.9781 13.8406 22.575 14.1094 22.1719 14.3781C21.6344 14.6469 21.0969 14.9156 20.425 14.9156C20.1562 14.9156 19.8875 14.9156 19.6187 14.7812C19.4844 14.6469 19.2156 14.5125 19.0812 14.3781C18.6781 14.1094 18.4094 13.8406 18.0062 13.5719C17.3344 13.1688 16.9312 12.6312 16.7969 12.3625C16.6625 11.825 16.7969 11.5562 17.2 11.2875C17.3344 11.0187 17.6031 10.75 17.8719 10.75C18.0062 10.6156 18.1406 10.6156 18.1406 10.4813C18.4094 10.0781 18.9469 9.675 19.6187 9.40625C19.8875 9.27187 20.1562 9.27188 20.5594 9.27188ZM25.5312 13.0344C26.2031 15.5875 27.6812 19.2156 28.6219 21.0969C29.1594 22.0375 30.1 24.0531 30.6375 26.4719C30.9062 26.4719 31.175 26.4719 31.5781 26.6062C32.7875 23.65 30.6375 20.425 29.6969 19.4844C29.2937 19.0812 29.2937 18.9469 29.4281 18.9469C30.5031 19.8875 31.8469 21.7687 32.3844 23.9187C32.6531 24.8594 32.6531 25.9344 32.3844 26.875C32.5187 26.875 32.6531 27.0094 32.7875 27.0094C34.6687 27.95 35.3406 28.7563 34.9375 29.8313V29.6969C34.8031 29.6969 34.6687 29.6969 34.6687 29.6969C34.9375 28.8906 34.4 28.2188 32.7875 27.5469C31.175 26.875 29.8312 27.0094 29.5625 28.3531C29.5625 28.4875 29.5625 28.4875 29.5625 28.6219C29.4281 28.6219 29.2937 28.7562 29.1594 28.7562C28.3531 29.2937 27.95 29.9656 27.6812 30.9062C27.4125 31.8469 27.4125 32.9219 27.2781 34.2656C27.2781 34.8031 27.0094 35.7437 26.7406 36.6844C24.0531 38.5656 20.2906 39.5063 17.2 37.2219C16.9312 36.8188 16.7969 36.55 16.5281 36.2812C16.3937 36.0125 16.2594 35.8781 15.9906 35.7438C16.2594 35.7438 16.6625 35.7438 16.7969 35.6094C17.0656 35.475 17.2 35.2063 17.3344 35.0719C17.4687 34.5344 17.3344 33.8625 16.6625 32.9219C15.9906 32.1156 15.05 31.175 13.4375 30.2344C12.3625 29.5625 11.6906 28.6219 11.4219 27.6813C11.1531 26.7406 11.1531 25.8 11.4219 24.725C11.825 22.8437 13.0344 20.9625 13.7062 19.7531C13.8406 19.6187 13.7062 20.0219 13.0344 21.5C12.3625 22.8438 11.0187 25.9344 12.7656 28.3531C12.9 26.6063 13.1687 24.8594 13.975 23.2469C14.9156 20.9625 17.0656 16.9313 17.2 13.8406C17.3344 13.975 17.6031 14.1094 17.7375 14.2438C18.1406 14.5125 18.4094 14.7812 18.8125 15.05C19.2156 15.4531 19.6187 15.5875 20.425 15.5875C20.5594 15.5875 20.5594 15.5875 20.5594 15.5875C21.2312 15.5875 21.9031 15.3187 22.3062 15.05C22.8437 14.7812 23.2469 14.5125 23.65 14.3781C24.4562 14.1094 25.1281 13.5719 25.5312 13.0344ZM29.4281 29.1594C29.5625 30.2344 30.1 31.4437 31.0406 31.5781C32.1156 31.8469 33.5937 31.0406 34.2656 30.2344H34.6687C35.2062 30.2344 35.7437 30.2344 36.1469 30.7719C36.55 31.175 36.6844 31.7125 36.8187 32.3844C36.9531 33.0563 37.0875 33.7281 37.4906 34.2656C38.2969 35.2062 38.7 35.8781 38.5656 36.2812C38.5656 36.6844 38.1625 36.9531 37.625 37.3562C36.55 38.0281 34.5344 38.5656 33.1906 40.1781C32.1156 41.5219 30.7719 42.1937 29.5625 42.3281C28.3531 42.4625 27.2781 41.925 26.7406 40.7156C26.3375 40.0437 26.4719 38.8344 26.875 37.625C27.1437 36.4156 27.6812 35.2062 27.6812 34.2656C27.6812 32.9219 27.8156 31.8469 28.0844 31.0406C28.3531 30.1 28.7562 29.5625 29.4281 29.1594ZM10.0781 29.2937C10.2125 29.2937 10.3469 29.2937 10.3469 29.2937C11.0187 29.4281 11.5562 29.8312 12.2281 30.6375L13.8406 33.5938C14.2437 34.5344 15.1844 35.475 15.9906 36.55C16.7969 37.625 17.3344 38.5656 17.3344 39.3719C17.2 40.7156 16.5281 41.3875 15.3187 41.6562C14.1094 41.925 12.6312 41.6562 11.0187 40.85C9.27187 39.9094 7.25624 40.0438 5.91249 39.775C5.24062 39.6406 4.83749 39.3719 4.56874 39.1031C4.43437 38.7 4.29999 38.0281 4.83749 36.9531C5.10624 36.4156 4.83749 35.6094 4.83749 34.9375C4.70312 34.2656 4.70312 33.7281 4.97187 33.1906C5.24062 32.6531 5.64374 32.5188 6.18124 32.25C6.71874 31.9812 7.39062 31.8469 7.79374 31.4437C8.06249 30.9062 8.46562 30.2344 8.86874 29.8313C9.27187 29.4281 9.54062 29.2937 10.0781 29.2937ZM22.8437 13.0344C22.0375 13.4375 21.0969 13.975 20.1562 13.975C19.2156 13.975 18.4094 13.4375 17.8719 13.1688C17.6031 12.9 17.3344 12.6312 17.2 12.6312C16.9312 12.3625 16.9312 12.0938 17.0656 12.0938C17.2 12.0938 17.3344 12.3625 17.4687 12.4969C17.6031 12.6313 17.8719 12.9 18.1406 13.0344C18.6781 13.4375 19.35 13.8406 20.2906 13.8406C21.0969 13.8406 22.1719 13.3031 22.8437 13.0344C23.2469 12.7656 23.65 12.4969 24.0531 12.2281C24.1875 11.825 24.1875 11.5563 24.3219 11.5563C24.5906 11.5563 24.3219 11.825 24.0531 12.0938C23.7844 12.3625 23.2469 12.7656 22.8437 13.0344ZM20.9625 10.0781C21.0969 9.80937 21.3656 9.94375 21.5 9.94375C21.6344 9.94375 21.7687 10.0781 21.7687 10.2125C21.7687 10.3469 21.6344 10.3469 21.5 10.3469C21.3656 10.3469 21.3656 10.2125 21.2312 10.2125C21.0969 10.2125 20.9625 10.2125 20.9625 10.0781ZM19.8875 10.0781C19.8875 10.2125 19.6187 10.2125 19.6187 10.2125C19.4844 10.2125 19.4844 10.3469 19.35 10.3469C19.2156 10.3469 19.0812 10.3469 19.0812 10.2125C19.0812 10.0781 19.2156 9.94375 19.35 9.94375C19.6187 9.94375 19.7531 9.94375 19.8875 10.0781Z" fill="#1E3050"/>
</svg>
