<svg width="38" height="38" viewBox="0 0 38 38" fill="none" xmlns="http://www.w3.org/2000/svg">
<g clip-path="url(#clip0_13_128)">
<path d="M18.8813 0.103271L19.8954 2.00802C20.1234 2.35952 20.3704 2.67065 20.6613 2.9604C21.5104 3.80946 22.3167 4.69889 23.0411 5.65127C24.7594 7.90752 25.9184 10.4131 26.7461 13.123C27.2424 14.7784 27.512 16.4765 27.5322 18.1936C27.6153 23.3272 25.8554 27.7352 22.3072 31.3986C21.7277 31.9781 21.1078 32.5149 20.4428 32.9923C20.0913 32.9923 19.9251 32.7227 19.7802 32.4745C19.5106 32.0197 19.3456 31.5008 19.2624 30.9842C19.1378 30.3631 19.0558 29.7421 19.0962 29.1008V28.8111C19.0677 28.7493 18.7578 0.249334 18.8813 0.103271Z" fill="#16243E"/>
<path d="M18.8813 0.0403653C18.8397 -0.0427597 18.7981 0.0201778 18.7566 0.0605528C18.7768 0.476178 18.6319 0.846678 18.4051 1.20055C18.1557 1.55205 17.8256 1.82161 17.4943 2.11136C15.6536 3.70499 14.2049 5.62993 13.0447 7.78286C11.5009 10.6804 10.7053 13.7857 10.4797 17.0549C10.3764 18.234 10.8526 22.395 11.2242 23.5956C12.2384 26.7829 14.06 29.4535 16.4196 31.7715C16.9991 32.3297 17.6189 32.8474 18.2602 33.345C18.4466 33.345 18.4668 33.1787 18.5096 33.0552C18.5913 32.791 18.6536 32.5211 18.696 32.2477L19.1116 29.1436L18.8813 0.0403653Z" fill="#1E3050"/>
<path d="M19.8954 34.2535C19.9369 33.7785 20.1649 33.3842 20.4131 32.9912C20.1637 32.8879 19.9785 32.6824 19.8336 32.4532C19.7089 32.2466 19.6056 31.9984 19.5249 31.7704C19.2351 30.9012 19.1734 29.9892 19.0902 29.1009V28.563C18.9869 28.6461 18.9656 29.3491 18.9656 29.4536C18.9051 30.3924 18.7805 31.326 18.5927 32.2478C18.5309 32.6207 18.4894 32.9924 18.2602 33.3237C18.2602 33.3652 18.2602 33.4068 18.2804 33.4685C18.6532 34.5658 18.7554 35.6832 18.8183 36.822V37.2377C18.8183 37.734 18.7981 37.6295 19.2102 37.7958C19.3764 37.8575 19.5617 37.8789 19.7279 38.0024C19.8526 38.0024 19.8728 37.8991 19.8728 37.816L19.8111 37.1332V35.2284C19.7909 34.8959 19.8526 34.5658 19.8942 34.2547L19.8954 34.2535Z" fill="#223556"/>
</g>
<defs>
<clipPath id="clip0_13_128">
<rect width="38" height="38" fill="white"/>
</clipPath>
</defs>
</svg>
