<svg width="27" height="36" viewBox="0 0 27 36" fill="none" xmlns="http://www.w3.org/2000/svg">
<g clip-path="url(#clip0_40_533)">
<path d="M15.7148 2.25C7.03125 2.25 0 9.30234 0 18C0 26.6977 7.03125 33.75 15.7148 33.75C19.9758 33.75 23.8359 32.0484 26.6695 29.2922C27.0211 28.9477 27.1125 28.4133 26.8875 27.9773C26.6625 27.5414 26.1773 27.2953 25.6922 27.3797C25.0031 27.4992 24.3 27.5625 23.5758 27.5625C16.7625 27.5625 11.2359 22.0219 11.2359 15.1875C11.2359 10.5609 13.7672 6.53203 17.5148 4.40859C17.9438 4.1625 18.1617 3.67031 18.0563 3.19219C17.9508 2.71406 17.543 2.35547 17.0508 2.31328C16.6078 2.27813 16.1648 2.25703 15.7148 2.25703V2.25Z" fill="white"/>
</g>
<defs>
<clipPath id="clip0_40_533">
<rect width="27" height="36" fill="white"/>
</clipPath>
</defs>
</svg>
