<svg width="34" height="38" viewBox="0 0 34 38" fill="none" xmlns="http://www.w3.org/2000/svg">
<g clip-path="url(#clip0_13_112)">
<path d="M16.625 37.7031C16.1277 37.7031 15.623 37.5695 15.1852 37.3172L10.6059 34.6082C9.92305 34.2222 10.257 34.0886 10.4797 34.0144C11.3926 33.6953 11.5781 33.6285 12.5504 33.0718C12.6543 33.0125 12.7879 33.0347 12.8918 33.1015L16.4098 35.1871C16.5359 35.2613 16.7141 35.2613 16.8328 35.1871L30.541 27.2754C30.6672 27.2011 30.7488 27.0527 30.7488 26.9043V11.0808C30.7488 10.925 30.6672 10.7839 30.5336 10.7023L16.8328 2.798C16.7066 2.72378 16.5359 2.72378 16.4098 2.798L2.71641 10.7097C2.58281 10.7839 2.50117 10.9324 2.50117 11.0882V26.9043C2.50117 27.0527 2.58281 27.2011 2.71641 27.2679L6.47188 29.4351C8.51289 30.4519 9.75977 29.257 9.75977 28.0472V12.4316C9.75977 12.2089 9.93789 12.0382 10.1605 12.0382H11.8973C12.1125 12.0382 12.298 12.2089 12.298 12.4316V28.0546C12.298 30.7711 10.8137 32.3297 8.23828 32.3297C7.44414 32.3297 6.8207 32.3297 5.08399 31.4687L1.4918 29.398C0.601175 28.8859 0.0519562 27.9285 0.0519562 26.8968V11.0808C0.0519562 10.0566 0.601175 9.09175 1.4918 8.57964L15.1852 0.66792C16.0535 0.178076 17.2039 0.178076 18.0648 0.66792L31.773 8.58706C32.6637 9.09917 33.2129 10.0566 33.2129 11.0882V26.9043C33.2129 27.9285 32.6637 28.8859 31.773 29.4054L18.0648 37.3172C17.627 37.5695 17.1297 37.7031 16.625 37.7031ZM27.691 22.1097C27.691 19.1484 25.6871 18.3617 21.4789 17.805C17.2187 17.241 16.7883 16.9515 16.7883 15.957C16.7883 15.1332 17.152 14.0347 20.3062 14.0347C23.1191 14.0347 24.1582 14.6433 24.5887 16.5433C24.6258 16.7214 24.7891 16.855 24.9746 16.855H26.7559C26.8672 16.855 26.9711 16.8105 27.0453 16.7289C27.1195 16.6472 27.1566 16.5359 27.1492 16.4246C26.8746 13.1515 24.7 11.63 20.3062 11.63C16.3949 11.63 14.0645 13.2777 14.0645 16.046C14.0645 19.0445 16.3875 19.8757 20.1355 20.2468C24.6258 20.6847 24.9746 21.3453 24.9746 22.2285C24.9746 23.7574 23.7426 24.4105 20.8555 24.4105C17.2262 24.4105 16.432 23.4976 16.1648 21.6941C16.1352 21.5011 15.9719 21.3601 15.7715 21.3601H13.9977C13.775 21.3601 13.6043 21.5382 13.6043 21.7535C13.6043 24.0617 14.8586 26.8152 20.8629 26.8152C25.1973 26.8078 27.691 25.0933 27.691 22.1097Z" fill="#1E3050"/>
</g>
<defs>
<clipPath id="clip0_13_112">
<rect width="33.25" height="38" fill="white"/>
</clipPath>
</defs>
</svg>
