<svg width="35" height="35" viewBox="0 0 35 35" fill="none" xmlns="http://www.w3.org/2000/svg">
<g clip-path="url(#clip0_13_132)">
<path d="M25.9533 25.4788C26.1762 23.6235 26.1092 23.3528 27.49 23.6522L27.8414 23.6837C28.9037 23.7315 30.2928 23.5128 31.1227 23.1341C32.8795 22.3192 33.9213 20.9575 32.1891 21.3157C28.2379 22.1305 27.9508 20.7921 27.9508 20.7921C32.1248 14.5987 33.8707 6.73738 32.3627 4.81374C28.2557 -0.436253 21.1449 2.04656 21.026 2.11218L20.9877 2.11902C20.2084 1.95496 19.3471 1.85925 18.349 1.84558C16.5607 1.81824 15.2045 2.31453 14.1736 3.09519C14.1736 3.09519 1.49023 -2.1302 2.07948 9.66726C2.20527 12.1774 5.67519 28.6712 9.81777 23.6809C11.334 21.8571 12.7969 20.3163 12.7969 20.3163C13.5215 20.7989 14.3924 21.045 15.3043 20.9561L15.3754 20.896C15.3543 21.1323 15.364 21.3703 15.4041 21.6042C14.3377 22.7964 14.6521 23.0055 12.5193 23.4444C10.3619 23.8887 11.6307 24.6803 12.4564 24.8882C13.46 25.1397 15.7814 25.4952 17.351 23.2995L17.2881 23.5497C17.7064 23.8846 17.6777 25.9559 17.7393 27.4352C17.8008 28.9145 17.8979 30.2967 18.2 31.1102C18.5021 31.9237 18.8562 34.0223 21.659 33.4344C24.001 32.9327 25.792 32.2094 25.9561 25.4911" fill="#0A121F"/>
<path d="M25.9533 25.4788C26.1762 23.6235 26.1092 23.3528 27.49 23.6522L27.8414 23.6837C28.9037 23.7315 30.2928 23.5128 31.1227 23.1341C32.8795 22.3192 33.9213 20.9575 32.1891 21.3157C28.2379 22.1305 27.9508 20.7921 27.9508 20.7921C32.1248 14.5987 33.8707 6.73738 32.3627 4.81374C28.2557 -0.436253 21.1449 2.04656 21.026 2.11218L20.9877 2.11902C20.2084 1.95496 19.3471 1.85925 18.349 1.84558C16.5607 1.81824 15.2045 2.31453 14.1736 3.09519C14.1736 3.09519 1.49023 -2.1302 2.07948 9.66726C2.20527 12.1774 5.67519 28.6712 9.81777 23.6809C11.334 21.8571 12.7969 20.3163 12.7969 20.3163C13.5215 20.7989 14.3924 21.045 15.3043 20.9561L15.3754 20.896C15.3543 21.1323 15.364 21.3703 15.4041 21.6042C14.3377 22.7964 14.6521 23.0055 12.5193 23.4444C10.3619 23.8887 11.6307 24.6803 12.4564 24.8882C13.46 25.1397 15.7814 25.4952 17.351 23.2995L17.2881 23.5497C17.7064 23.8846 17.6777 25.9559 17.7393 27.4352C17.8008 28.9145 17.8979 30.2967 18.2 31.1102C18.5021 31.9237 18.8562 34.0223 21.659 33.4344C24.001 32.9327 25.792 32.2094 25.9561 25.4911" stroke="#0A121F" stroke-width="5.3725"/>
<path d="M32.1767 21.3281C28.2256 22.143 27.9385 20.8045 27.9385 20.8045C32.1125 14.6111 33.8584 6.74979 32.3517 4.82616C28.2447 -0.423838 21.134 2.06034 21.015 2.1246L20.9767 2.13144C20.1082 1.95717 19.2252 1.86516 18.3394 1.85663C16.5512 1.82929 15.1949 2.32558 14.1641 3.10624C14.1641 3.10624 1.47929 -2.11915 2.06991 9.67831C2.1957 12.1885 5.66562 28.6822 9.80819 23.692C11.334 21.8572 12.7969 20.3164 12.7969 20.3164C13.5215 20.799 14.3924 21.0451 15.3043 20.9562L15.3754 20.8961C15.3545 21.1324 15.3641 21.3704 15.4041 21.6043C14.3377 22.7965 14.6521 23.0057 12.5193 23.4445C10.3619 23.8889 11.6307 24.6805 12.4564 24.8883C13.46 25.1398 15.7814 25.4953 17.351 23.2996L17.2881 23.5498C17.7064 23.8848 17.999 25.7277 17.9498 27.3984C17.9006 29.0691 17.8678 30.2148 18.1959 31.1117C18.524 32.0086 18.8521 34.0238 21.6549 33.4359C23.9969 32.9342 25.2096 31.6312 25.3805 29.4629C25.5008 27.9207 25.7715 28.1476 25.7906 26.7695L26.0094 26.116C26.2596 24.0242 26.0504 23.3502 27.4928 23.6646L27.8441 23.6961C28.9064 23.7439 30.2969 23.5252 31.1117 23.1465C32.8685 22.3316 33.909 20.9699 32.1767 21.3281Z" fill="#1E3050"/>
<path d="M17.5191 22.5134C17.4098 26.4044 17.5465 30.3228 17.9266 31.2634C18.3066 32.2041 19.1229 34.0662 21.927 33.4673C24.2689 32.9656 25.1221 31.9935 25.4912 29.8484L26.3566 22.9892M14.1586 3.00778C14.1586 3.00778 1.46562 -2.18206 2.05625 9.61539C2.18203 12.1255 5.65195 28.6193 9.79453 23.6291C11.3066 21.8066 12.6738 20.3806 12.6738 20.3806M21.0137 2.06032C20.5762 2.19703 28.0738 -0.680894 32.3367 4.76461C33.8406 6.68824 32.0975 14.5496 27.9234 20.7429" stroke="#0B1525" stroke-width="1.79" stroke-linecap="round" stroke-linejoin="round"/>
<path d="M27.9248 20.7401C27.9248 20.7401 28.1982 22.0799 32.1631 21.2624C33.8953 20.9042 32.8521 22.2659 31.0967 23.0807C29.6557 23.7506 26.4236 23.9215 26.3703 22.9987C26.2336 20.6129 28.0711 21.3376 27.9385 20.7401C27.8182 20.2014 26.9951 19.6737 26.4537 18.3557C25.9793 17.2073 19.9459 8.38892 28.1271 9.69732C28.4279 9.6358 25.9943 1.90435 18.3381 1.79224C10.6818 1.68013 10.9238 11.2053 10.9238 11.2053" stroke="#0B1525" stroke-width="1.79" stroke-linecap="round" stroke-linejoin="bevel"/>
<path d="M15.3768 21.5578C14.3104 22.75 14.6248 22.9592 12.492 23.398C10.3346 23.8424 11.6033 24.634 12.4291 24.8418C13.4326 25.0934 15.7541 25.4488 17.3236 23.2518C17.8021 22.5818 17.3209 21.5154 16.6646 21.2447C16.3475 21.1135 15.9236 20.9494 15.3795 21.5592L15.3768 21.5578Z" stroke="#0B1525" stroke-width="1.79" stroke-linejoin="round"/>
<path d="M15.307 21.5372C15.1977 20.8359 15.5367 20.0032 15.899 19.0271C16.4432 17.5642 17.6982 16.1013 16.6947 11.4569C15.9469 7.99796 10.9252 10.7364 10.9252 11.2054C10.9252 11.6743 11.1521 13.5843 10.8432 15.806C10.4371 18.7071 12.6889 21.1599 15.2811 20.9097" stroke="#0B1525" stroke-width="1.79" stroke-linecap="round" stroke-linejoin="round"/>
<path d="M14.1121 11.1356C14.0889 11.2955 14.406 11.7235 14.8176 11.7809C15.2291 11.8383 15.5805 11.5047 15.6037 11.3434C15.6269 11.1821 15.3098 11.0071 14.8982 10.9496C14.4867 10.8922 14.1326 10.977 14.1121 11.1356Z" fill="#0B1525" stroke="#0B1525" stroke-width="0.5975"/>
<path d="M26.641 10.8089C26.6629 10.9689 26.3471 11.3968 25.9355 11.4542C25.524 11.5117 25.1699 11.1781 25.1494 11.0167C25.1289 10.8554 25.4433 10.6804 25.8549 10.623C26.2664 10.5656 26.6205 10.6503 26.641 10.8089Z" fill="#0B1525" stroke="#0B1525" stroke-width="0.2975"/>
<path d="M28.1121 9.7002C28.1805 10.958 27.8414 11.8125 27.7977 13.151C27.7348 15.0951 28.7246 17.3209 27.233 19.5494" stroke="#0B1525" stroke-width="1.79" stroke-linecap="round" stroke-linejoin="round"/>
</g>
<defs>
<clipPath id="clip0_13_132">
<rect width="35" height="35" fill="white"/>
</clipPath>
</defs>
</svg>
