<svg width="32" height="39" viewBox="0 0 32 39" fill="none" xmlns="http://www.w3.org/2000/svg">
<g clip-path="url(#clip0_13_147)">
<path fill-rule="evenodd" clip-rule="evenodd" d="M31.4041 29.6758L18.1388 1.50487C17.9739 1.15818 17.7184 0.862497 17.3993 0.649126C17.0802 0.435755 16.7093 0.312634 16.3259 0.292796C15.9419 0.267064 15.5581 0.347127 15.2164 0.524277C14.8747 0.701428 14.5881 0.968884 14.3878 1.29756L-8.07643e-06 24.6009C-0.218798 24.9528 -0.332737 25.3597 -0.328467 25.7741C-0.324197 26.1884 -0.201896 26.5929 0.0240985 26.9402L7.0584 37.8335C7.32453 38.2424 7.71572 38.5543 8.17362 38.7227C8.63153 38.8911 9.1316 38.9069 9.59924 38.7678L30.0127 32.7296C30.3201 32.6398 30.6045 32.485 30.8469 32.2757C31.0893 32.0664 31.2839 31.8076 31.4176 31.5166C31.5495 31.2271 31.6167 30.9124 31.6145 30.5943C31.6123 30.2763 31.5409 29.9625 31.4051 29.6749L31.4041 29.6758ZM28.4342 30.884L11.1122 36.0062C10.5838 36.1634 10.0765 35.7053 10.1865 35.1721L16.3751 5.53935C16.4908 4.9849 17.2565 4.89715 17.4985 5.41014L28.9549 29.7385C29.0056 29.8469 29.0321 29.965 29.0327 30.0847C29.0333 30.2043 29.0079 30.3227 28.9583 30.4316C28.9087 30.5405 28.8361 30.6373 28.7454 30.7154C28.6548 30.7936 28.5492 30.8511 28.4342 30.884Z" fill="#1E3050"/>
</g>
<defs>
<clipPath id="clip0_13_147">
<rect width="31.9332" height="39" fill="white"/>
</clipPath>
</defs>
</svg>
