<svg width="36" height="36" viewBox="0 0 36 36" fill="none" xmlns="http://www.w3.org/2000/svg">
<path d="M29.4047 12.4595C29.025 12.3329 28.6453 12.2134 28.2656 12.1009C28.3289 11.8407 28.3852 11.5806 28.4414 11.3204C29.3062 7.12979 28.7367 3.76182 26.8172 2.65088C24.968 1.58916 21.9516 2.69307 18.9 5.35088C18.5977 5.61104 18.3023 5.88526 18.0211 6.15947C17.8312 5.97666 17.6344 5.79385 17.4375 5.61807C14.2383 2.77744 11.032 1.58213 9.1125 2.7001C7.27031 3.76885 6.72187 6.93994 7.49531 10.9056C7.57266 11.2993 7.65703 11.686 7.75547 12.0798C7.30547 12.2064 6.8625 12.347 6.44766 12.4946C2.69297 13.7954 0 15.8485 0 17.972C0 20.1657 2.86875 22.3665 6.77109 23.7024C7.0875 23.8079 7.40391 23.9134 7.72734 24.0048C7.62188 24.4267 7.53047 24.8415 7.44609 25.2704C6.70781 29.1728 7.28438 32.2665 9.12656 33.3282C11.025 34.4251 14.2172 33.3001 17.325 30.579C17.5711 30.361 17.8172 30.136 18.0633 29.897C18.3727 30.1993 18.6961 30.4876 19.0195 30.7689C22.0289 33.3564 25.0031 34.404 26.8383 33.3423C28.7367 32.2454 29.3555 28.9196 28.5539 24.8696C28.4906 24.5603 28.4203 24.2439 28.343 23.9204C28.568 23.8571 28.7859 23.7868 29.0039 23.7165C33.0609 22.3735 36 20.2009 36 17.972C36 15.8415 33.2297 13.7743 29.4047 12.4595ZM19.8914 6.48994C22.507 4.21182 24.9469 3.31885 26.0578 3.95869C27.2461 4.64072 27.7031 7.39697 26.9578 11.0181C26.9086 11.2571 26.8594 11.4892 26.7961 11.7212C25.2352 11.3696 23.6531 11.1165 22.0641 10.9759C21.15 9.66807 20.1516 8.41651 19.0688 7.24229C19.343 6.98213 19.6102 6.73604 19.8914 6.48994ZM11.7562 21.6212C12.1148 22.2329 12.4805 22.8446 12.8672 23.4423C11.7703 23.3228 10.6805 23.147 9.60469 22.9149C9.91406 21.9024 10.3008 20.8548 10.7508 19.786C11.0742 20.4048 11.4047 21.0165 11.7562 21.6212ZM9.62578 13.1626C10.6383 12.9376 11.7141 12.7548 12.832 12.6142C12.4594 13.1978 12.0938 13.7954 11.7492 14.4001C11.4047 14.9978 11.0672 15.6095 10.7508 16.2282C10.3078 15.1806 9.93516 14.154 9.62578 13.1626ZM11.5523 18.0071C12.0164 17.0368 12.5227 16.0876 13.057 15.1524C13.5914 14.2173 14.168 13.3103 14.7727 12.4173C15.8273 12.3399 16.9031 12.2978 18 12.2978C19.0969 12.2978 20.1797 12.3399 21.2273 12.4173C21.825 13.3032 22.3945 14.2103 22.9359 15.1384C23.4773 16.0665 23.9836 17.0157 24.4617 17.979C23.9906 18.9493 23.4844 19.9056 22.943 20.8478C22.4086 21.7829 21.8391 22.6899 21.2414 23.5899C20.1938 23.6673 19.1039 23.7024 18 23.7024C16.8961 23.7024 15.8273 23.6673 14.7937 23.604C14.182 22.711 13.6055 21.797 13.0641 20.8618C12.5227 19.9267 12.0234 18.9774 11.5523 18.0071ZM24.2508 21.6071C24.6094 20.9884 24.9469 20.3626 25.2773 19.7298C25.7273 20.7493 26.1211 21.7829 26.4656 22.8446C25.3758 23.0907 24.2719 23.2806 23.1609 23.4071C23.5406 22.8165 23.8992 22.2118 24.2508 21.6071ZM25.2633 16.2282C24.9328 15.6095 24.5953 14.9907 24.2437 14.386C23.8992 13.7884 23.5406 13.1978 23.168 12.6142C24.3 12.7548 25.3828 12.9446 26.3953 13.1767C26.0719 14.2173 25.6922 15.2298 25.2633 16.2282ZM18.0141 8.31807C18.7523 9.11963 19.4484 9.96338 20.0953 10.8353C18.7031 10.772 17.3039 10.772 15.9117 10.8353C16.6008 9.92823 17.3109 9.08448 18.0141 8.31807ZM9.85781 4.00791C11.0391 3.31885 13.6617 4.30322 16.425 6.7501C16.6008 6.90479 16.7766 7.07354 16.9594 7.24229C15.8695 8.41651 14.8641 9.66807 13.943 10.9759C12.3539 11.1165 10.7789 11.3626 9.21797 11.7071C9.12656 11.3485 9.04922 10.9829 8.97188 10.6173C8.31094 7.21416 8.74687 4.64775 9.85781 4.00791ZM8.13516 22.5423C7.83984 22.4579 7.55156 22.3665 7.26328 22.2681C5.76563 21.797 4.06406 21.0517 2.83359 20.0743C2.12344 19.5821 1.64531 18.8228 1.51172 17.972C1.51172 16.6853 3.73359 15.0399 6.93984 13.922C7.34062 13.7814 7.74844 13.6548 8.15625 13.5353C8.63437 15.061 9.21094 16.5587 9.87891 18.0071C9.20391 19.4767 8.62031 20.9954 8.13516 22.5423ZM16.3336 29.4329C15.1734 30.4946 13.8305 31.3384 12.368 31.915C11.5875 32.2876 10.6875 32.3228 9.88594 32.0064C8.76797 31.3595 8.30391 28.8775 8.93672 25.5376C9.01406 25.1439 9.09844 24.7501 9.19688 24.3634C10.7719 24.7009 12.3609 24.9329 13.9711 25.0525C14.8992 26.3673 15.9187 27.6259 17.0086 28.8071C16.7836 29.0251 16.5586 29.236 16.3336 29.4329ZM18.0562 27.7243C17.3391 26.9509 16.6219 26.0931 15.9258 25.172C16.6008 25.2001 17.2969 25.2142 18 25.2142C18.7242 25.2142 19.4344 25.2001 20.1375 25.1649C19.4906 26.0579 18.7945 26.9087 18.0562 27.7243ZM27.2461 29.8337C27.1828 30.6915 26.7609 31.4931 26.0859 32.0345C24.968 32.6814 22.5844 31.8376 20.0109 29.6298C19.7156 29.3767 19.4203 29.1025 19.118 28.8212C20.1938 27.6329 21.1852 26.3743 22.0852 25.0525C23.6953 24.9189 25.2984 24.6728 26.8805 24.3142C26.9508 24.6024 27.0141 24.8907 27.0703 25.172C27.4148 26.6907 27.4711 28.2728 27.2461 29.8337ZM28.5258 22.2751C28.3289 22.3384 28.132 22.4017 27.9281 22.4579C27.4359 20.9251 26.8313 19.4274 26.1352 17.972C26.8102 16.5376 27.3797 15.061 27.8578 13.5493C28.2234 13.6548 28.575 13.7673 28.9125 13.8798C32.1891 15.0048 34.4883 16.6782 34.4883 17.9579C34.4883 19.336 32.0344 21.1149 28.5258 22.2751ZM18 21.2204C19.7789 21.2204 21.2203 19.779 21.2203 18.0001C21.2203 16.2212 19.7789 14.7798 18 14.7798C16.2211 14.7798 14.7797 16.2212 14.7797 18.0001C14.7797 19.779 16.2211 21.2204 18 21.2204Z" fill="#1E3050"/>
</svg>
