<svg width="45" height="36" viewBox="0 0 45 36" fill="none" xmlns="http://www.w3.org/2000/svg">
<g clip-path="url(#clip0_13_97)">
<path d="M21.2203 26.6413C21.1781 26.7186 21.1992 26.6835 21.2203 26.6413V26.6413ZM38.7352 20.5241C37.321 20.5237 35.9257 20.8485 34.657 21.4733C34.2422 20.6366 33.8133 19.9054 33.743 19.3569C33.6586 18.7171 33.5672 18.3374 33.6656 17.578C33.7641 16.8186 34.207 15.7429 34.2 15.6655C34.193 15.5882 34.1016 15.2015 33.1945 15.1944C32.2875 15.1874 31.507 15.3702 31.4156 15.6093C31.2554 16.0461 31.1308 16.4953 31.043 16.9522C30.8812 17.7749 29.2289 20.7139 28.2937 22.2468C27.9844 21.6491 27.7242 21.1218 27.668 20.6999C27.5836 20.06 27.4922 19.6804 27.5906 18.921C27.6891 18.1616 28.132 17.0858 28.125 17.0085C28.118 16.9311 28.0266 16.5444 27.1195 16.5374C26.2125 16.5304 25.432 16.7132 25.3406 16.9522C25.2492 17.1913 25.1508 17.7538 24.968 18.2952C24.7852 18.8366 22.5844 23.7304 22.0078 25.003C21.7125 25.6499 21.4594 26.1702 21.2766 26.5218C21.2484 26.578 21.2273 26.6132 21.2133 26.6413C21.2344 26.6061 21.2484 26.571 21.2484 26.585C21.0937 26.8874 21.0023 27.0561 21.0023 27.0561V27.0632C20.8828 27.2882 20.7492 27.4921 20.6859 27.4921C20.6437 27.4921 20.5523 26.9014 20.707 26.0929C21.0375 24.3913 21.818 21.7475 21.8109 21.6561C21.8039 21.6069 21.9586 21.1499 21.2977 20.9038C20.6578 20.6718 20.4258 21.0585 20.3695 21.0585C20.3133 21.0585 20.2711 21.1991 20.2711 21.1991C20.2711 21.1991 20.9812 18.2179 18.907 18.2179C17.6133 18.2179 15.8133 19.6382 14.9273 20.9249C14.3719 21.2272 13.1695 21.8811 11.9039 22.5772C11.4187 22.8444 10.9195 23.1186 10.4484 23.3788C10.4133 23.3436 10.3852 23.3085 10.35 23.2733C7.83281 20.5874 3.18515 18.6889 3.38203 15.0819C3.45234 13.7671 3.90937 10.3147 12.3187 6.12411C19.2094 2.69286 24.7219 3.63504 25.6641 5.73036C27.0281 8.71864 22.718 14.2804 15.5602 15.0819C12.832 15.3843 11.3977 14.3296 11.0391 13.9358C10.6664 13.521 10.6102 13.4999 10.4695 13.5772C10.2375 13.7038 10.3852 14.0694 10.4695 14.2874C10.6805 14.8429 11.5594 15.8272 13.057 16.3194C14.3719 16.7483 17.5711 16.9874 21.4383 15.4897C25.7836 13.8163 29.1656 9.15457 28.1742 5.25223C27.1758 1.28661 20.6016 -0.0141752 14.3859 2.19364C10.6805 3.50848 6.67265 5.57567 3.78984 8.26864C0.365622 11.4749 -0.182816 14.2663 0.042184 15.4335C0.843746 19.5749 6.55312 22.2749 8.83828 24.2718C8.72578 24.335 8.62031 24.3913 8.52187 24.4475C7.37578 25.0171 3.02343 27.2952 1.93359 29.6999C0.703121 32.428 2.1375 34.3827 3.07968 34.6499C6.01875 35.4655 9.02812 33.996 10.6453 31.5843C12.2625 29.1725 12.0656 26.0225 11.3203 24.5882C11.3133 24.5671 11.2992 24.553 11.2922 24.5319C11.5875 24.3561 11.8898 24.1804 12.1922 24.0046C12.7758 23.66 13.3453 23.3436 13.8445 23.0694C13.5633 23.8288 13.3594 24.7429 13.2539 26.0647C13.1273 27.6116 13.7672 29.6155 14.5969 30.403C14.9625 30.7475 15.4055 30.7546 15.6797 30.7546C16.65 30.7546 17.0859 29.953 17.5711 28.9968C18.1687 27.8296 18.6961 26.4725 18.6961 26.4725C18.6961 26.4725 18.0352 30.1429 19.8422 30.1429C20.5031 30.1429 21.1641 29.2921 21.4594 28.8561V28.8632C21.4594 28.8632 21.4734 28.835 21.5086 28.7788C21.5789 28.6733 21.6141 28.61 21.6141 28.61V28.5889C21.8812 28.1319 22.4648 27.0843 23.3437 25.3546C24.4828 23.1186 25.5727 20.3272 25.5727 20.3272C25.6779 20.9409 25.8235 21.5469 26.0086 22.1413C26.2055 22.8093 26.6203 23.5405 26.9508 24.2507C26.6836 24.6163 26.5219 24.8272 26.5219 24.8272C26.5223 24.8326 26.5248 24.8377 26.5289 24.8413C26.318 25.1225 26.0789 25.4249 25.8328 25.7202C24.9328 26.7889 23.8641 28.0124 23.7234 28.3639C23.5547 28.7788 23.5969 29.0882 23.9203 29.3272C24.1594 29.51 24.5812 29.5382 25.0242 29.503C25.8328 29.4468 26.4023 29.2499 26.6766 29.1233C27.1823 28.9421 27.6604 28.6913 28.0969 28.378C28.9758 27.7311 29.5102 26.803 29.4609 25.5796C29.4328 24.9046 29.2148 24.2296 28.9477 23.5968C29.025 23.4843 29.1094 23.3647 29.1867 23.2452C30.5719 21.2132 31.6477 18.9843 31.6477 18.9843C31.7529 19.5979 31.8985 20.2039 32.0836 20.7983C32.2523 21.3679 32.5828 21.9936 32.8852 22.6054C31.5773 23.6671 30.7687 24.8975 30.4875 25.7061C29.9672 27.2038 30.375 27.8788 31.1414 28.0335C31.4859 28.1038 31.9781 27.9421 32.3437 27.7874C32.887 27.6065 33.3992 27.3433 33.8625 27.0069C34.7414 26.36 35.5922 25.453 35.5359 24.2225C35.5148 23.6671 35.3602 23.1116 35.1562 22.5772C36.2602 22.1132 37.6945 21.86 39.5227 22.071C43.4391 22.528 44.2055 24.9749 44.0578 25.9944C43.9102 27.014 43.0875 27.5835 42.8133 27.7522C42.5391 27.921 42.4547 27.9843 42.4758 28.1108C42.5109 28.2936 42.6375 28.2866 42.8695 28.2444C43.193 28.1882 44.9227 27.4147 45 25.5233C45.1125 23.1327 42.8133 20.503 38.7422 20.5241H38.7352ZM8.55703 30.6983C7.26328 32.1116 5.44922 32.646 4.66875 32.196C3.83906 31.7108 4.16953 29.6296 5.76562 28.1249C6.73593 27.2108 7.9875 26.3671 8.81718 25.8468C9.00703 25.7343 9.28125 25.5655 9.61875 25.3616C9.675 25.3265 9.70312 25.3124 9.70312 25.3124C9.7664 25.2702 9.83671 25.235 9.90703 25.1929C10.4906 27.3304 9.92812 29.2147 8.56406 30.6983H8.55703ZM18.007 24.2718C17.557 25.3757 16.6078 28.1882 16.0312 28.0405C15.5391 27.9139 15.2367 25.7694 15.9328 23.66C16.2844 22.5983 17.0297 21.3327 17.4727 20.8405C18.1828 20.046 18.9633 19.7929 19.1461 20.1093C19.3922 20.5241 18.2883 23.5827 18.007 24.2718ZM25.8117 27.9983C25.6219 28.0968 25.4461 28.16 25.3617 28.1108C25.2984 28.0757 25.4391 27.9421 25.4391 27.9421C25.4391 27.9421 26.4164 26.8944 26.8031 26.4163C27.0281 26.135 27.2883 25.8046 27.5695 25.4389C27.5695 25.4741 27.5766 25.5093 27.5766 25.5514C27.5695 26.81 26.3602 27.6608 25.8117 27.9983ZM31.8305 26.6272C31.6898 26.5288 31.7109 26.1983 32.182 25.1718C32.3648 24.771 32.7867 24.096 33.518 23.4491C33.6008 23.694 33.6458 23.95 33.6516 24.2085C33.6445 25.7905 32.5125 26.3811 31.8305 26.6272Z" fill="#1E3050"/>
</g>
<defs>
<clipPath id="clip0_13_97">
<rect width="45" height="36" fill="white"/>
</clipPath>
</defs>
</svg>
