<svg width="34" height="34" viewBox="0 0 34 34" fill="none" xmlns="http://www.w3.org/2000/svg">
<g clip-path="url(#clip0_41_558)">
<path d="M24.0071 0.0809865C24.3391 0.22044 24.5782 0.519268 24.6446 0.871221L25.9661 8.03646L33.1313 9.3513C33.4833 9.41771 33.7821 9.65677 33.9216 9.9888C34.061 10.3208 34.0212 10.6993 33.8153 10.9982L29.6782 17.0013L33.8153 22.9978C34.0212 23.2966 34.061 23.6751 33.9216 24.0072C33.7821 24.3392 33.4833 24.5783 33.1313 24.6447L25.9661 25.9661L24.6446 33.1314C24.5782 33.4833 24.3391 33.7822 24.0071 33.9216C23.6751 34.0611 23.2966 34.0212 22.9977 33.8154L17.0012 29.6783L11.0048 33.8154C10.7059 34.0212 10.3274 34.0611 9.99538 33.9216C9.66335 33.7822 9.42429 33.4833 9.35788 33.1314L8.0364 25.9661L0.87116 24.6447C0.519207 24.5783 0.220379 24.3392 0.0809255 24.0072C-0.0585277 23.6751 -0.0186839 23.2966 0.187175 22.9978L4.32429 17.0013L0.187175 11.0048C-0.0186839 10.706 -0.0585277 10.3275 0.0809255 9.99544C0.220379 9.66341 0.519207 9.42435 0.87116 9.35794L8.0364 8.03646L9.35788 0.871221C9.42429 0.519268 9.66335 0.22044 9.99538 0.0809865C10.3274 -0.0584666 10.7059 -0.0186229 11.0048 0.187236L17.0012 4.32435L22.9977 0.187236C23.2966 -0.0186229 23.6751 -0.0584666 24.0071 0.0809865ZM10.6262 17.0013C10.6262 15.3105 11.2979 13.689 12.4934 12.4935C13.689 11.2979 15.3105 10.6263 17.0012 10.6263C18.692 10.6263 20.3135 11.2979 21.509 12.4935C22.7046 13.689 23.3762 15.3105 23.3762 17.0013C23.3762 18.6921 22.7046 20.3136 21.509 21.5091C20.3135 22.7047 18.692 23.3763 17.0012 23.3763C15.3105 23.3763 13.689 22.7047 12.4934 21.5091C11.2979 20.3136 10.6262 18.6921 10.6262 17.0013ZM25.5012 17.0013C25.5012 14.747 24.6057 12.585 23.0116 10.9909C21.4176 9.39683 19.2556 8.5013 17.0012 8.5013C14.7469 8.5013 12.5849 9.39683 10.9908 10.9909C9.39677 12.585 8.50124 14.747 8.50124 17.0013C8.50124 19.2556 9.39677 21.4176 10.9908 23.0117C12.5849 24.6058 14.7469 25.5013 17.0012 25.5013C19.2556 25.5013 21.4176 24.6058 23.0116 23.0117C24.6057 21.4176 25.5012 19.2556 25.5012 17.0013Z" fill="black"/>
</g>
<defs>
<clipPath id="clip0_41_558">
<rect width="34" height="34" fill="white"/>
</clipPath>
</defs>
</svg>
