<svg width="50" height="50" viewBox="0 0 50 50" fill="none" xmlns="http://www.w3.org/2000/svg">
<g clip-path="url(#clip0_132_2)">
<path d="M38.5742 11.2305C35.1563 6.25001 28.2227 4.78517 23.2422 7.91017L14.5508 13.4766C13.3759 14.2271 12.3699 15.2137 11.5966 16.3736C10.8233 17.5336 10.2995 18.8417 10.0586 20.2149C9.63023 22.5071 9.97365 24.8768 11.0352 26.9531C10.2918 28.1092 9.79325 29.4054 9.57031 30.7617C9.33334 32.1529 9.37535 33.5772 9.69389 34.952C10.0124 36.3267 10.6011 37.6244 11.4258 38.7695C14.8438 43.75 21.7773 45.2149 26.7578 42.0899L35.4492 36.5234C36.6241 35.7729 37.6301 34.7864 38.4034 33.6264C39.1767 32.4664 39.7005 31.1583 39.9414 29.7852C40.3698 27.4929 40.0263 25.1233 38.9648 23.0469C39.7082 21.8908 40.2068 20.5946 40.4297 19.2383C40.6667 17.8472 40.6247 16.4228 40.3061 15.0481C39.9876 13.6733 39.3989 12.3756 38.5742 11.2305Z" fill="#1E3050"/>
<path d="M22.4456 39.4128C21.0633 39.7898 19.5981 39.7293 18.2516 39.2397C16.9051 38.7501 15.7433 37.8553 14.9261 36.6784C14.4308 35.9771 14.0807 35.1839 13.8962 34.3454C13.7118 33.5069 13.6967 32.64 13.8519 31.7956C13.8995 31.5312 13.9648 31.2702 14.0472 31.0144L14.2425 30.5261L14.7308 30.8191C15.7675 31.5626 16.9234 32.124 18.1487 32.4792L18.4417 32.5769V32.9675C18.3912 33.4117 18.4946 33.8599 18.7347 34.237C18.9682 34.602 19.3113 34.8837 19.7148 35.0416C20.1184 35.1995 20.5615 35.2255 20.9808 35.1159C21.1912 35.052 21.3893 34.9529 21.5667 34.823L30.2581 29.2566C30.6624 28.9838 30.9431 28.5628 31.0394 28.0847C31.1397 27.5769 31.0343 27.05 30.7464 26.6198C30.5129 26.2548 30.1697 25.9732 29.7662 25.8153C29.3627 25.6574 28.9195 25.6314 28.5003 25.7409C28.3241 25.8142 28.1596 25.9129 28.012 26.0339L24.6917 28.0847C24.1187 28.4421 23.4923 28.7059 22.8362 28.8659C21.4679 29.2211 20.0237 29.1496 18.6971 28.6609C17.3706 28.1721 16.2252 27.2896 15.4144 26.1316C14.9191 25.4302 14.569 24.637 14.3845 23.7985C14.2 22.9601 14.185 22.0931 14.3401 21.2487C14.4954 20.429 14.8185 19.6501 15.289 18.9611C15.7596 18.2721 16.3675 17.6878 17.0745 17.2448L25.7659 11.6784C26.3088 11.3302 26.9015 11.0668 27.5237 10.8972C28.906 10.5202 30.3712 10.5806 31.7177 11.0703C33.0642 11.5599 34.226 12.4547 35.0433 13.6316C35.5385 14.3329 35.8886 15.1261 36.0731 15.9646C36.2576 16.8031 36.2727 17.67 36.1175 18.5144C36.0695 18.7788 36.0043 19.0397 35.9222 19.2956L35.7269 19.7839L35.2386 19.4909C34.2018 18.7474 33.046 18.186 31.8206 17.8308L31.5276 17.7331V17.3425C31.5782 16.8983 31.4747 16.4501 31.2347 16.073C31.0011 15.708 30.658 15.4263 30.2545 15.2684C29.851 15.1105 29.4078 15.0845 28.9886 15.1941C28.7782 15.258 28.5801 15.3571 28.4026 15.487L19.7112 21.0534C19.3069 21.3262 19.0263 21.7472 18.93 22.2253C18.8297 22.7331 18.935 23.26 19.2229 23.6901C19.4565 24.0552 19.7996 24.3368 20.2031 24.4947C20.6066 24.6526 21.0498 24.6786 21.469 24.5691C21.6452 24.4958 21.8097 24.3971 21.9573 24.2761L25.2776 22.2253C25.8506 21.8678 26.477 21.6041 27.1331 21.4441C28.5014 21.0889 29.9457 21.1604 31.2722 21.6491C32.5987 22.1379 33.7441 23.0204 34.555 24.1784C35.0502 24.8797 35.4003 25.6729 35.5848 26.5114C35.7693 27.3499 35.7844 28.2168 35.6292 29.0612C35.4739 29.881 35.1508 30.6598 34.6803 31.3489C34.2097 32.0379 33.6019 32.6222 32.8948 33.0651L24.2034 38.6316C23.6606 38.9798 23.0678 39.2432 22.4456 39.4128Z" fill="#08141F"/>
</g>
<defs>
<clipPath id="clip0_132_2">
<rect width="50" height="50" fill="white"/>
</clipPath>
</defs>
</svg>
