<svg width="32" height="32" viewBox="0 0 32 32" fill="none" xmlns="http://www.w3.org/2000/svg">
<g clip-path="url(#clip0_13_88)">
<path d="M4.91256 0.312519C4.31881 -0.149981 3.47506 -0.0937311 2.93756 0.437519L0.437562 2.93752C-0.0936879 3.46877 -0.149938 4.31252 0.306312 4.91252L5.30631 11.4125C5.58756 11.7813 6.03131 12 6.49381 12H9.87506L16.6876 18.8125C15.7688 20.625 16.0626 22.9 17.5813 24.4125L24.5813 31.4125C25.3626 32.1938 26.6313 32.1938 27.4126 31.4125L31.4126 27.4125C32.1938 26.6313 32.1938 25.3625 31.4126 24.5813L24.4126 17.5813C22.9001 16.0688 20.6251 15.7688 18.8126 16.6875L12.0001 9.87502V6.50002C12.0001 6.03127 11.7813 5.59377 11.4126 5.31252L4.91256 0.312519ZM1.24381 24.7563C0.450062 25.55 6.21356e-05 26.6313 6.21356e-05 27.7563C6.21356e-05 30.1 1.90006 32 4.24381 32C5.36881 32 6.45006 31.55 7.24381 30.7563L14.6063 23.3938C14.1188 22.0875 14.0438 20.6688 14.3813 19.325L10.5251 15.4688L1.24381 24.7563ZM32.0001 9.00002C32.0001 8.34377 31.9313 7.70627 31.8001 7.09377C31.6501 6.39377 30.7938 6.21252 30.2876 6.71877L26.2938 10.7125C26.1063 10.9 25.8501 11.0063 25.5876 11.0063H22.0001C21.4501 11.0063 21.0001 10.5563 21.0001 10.0063V6.41252C21.0001 6.15002 21.1063 5.89377 21.2938 5.70627L25.2876 1.71252C25.7938 1.20627 25.6126 0.350019 24.9126 0.200019C24.2938 0.0687689 23.6563 1.88993e-05 23.0001 1.88993e-05C18.0313 1.88993e-05 14.0001 4.03127 14.0001 9.00002V9.05002L19.3313 14.3813C21.5813 13.8125 24.0688 14.4125 25.8313 16.175L26.8126 17.1563C29.8751 15.7188 32.0001 12.6063 32.0001 9.00002ZM3.50006 27C3.50006 26.6022 3.6581 26.2207 3.9394 25.9394C4.22071 25.6581 4.60224 25.5 5.00006 25.5C5.39789 25.5 5.77942 25.6581 6.06072 25.9394C6.34203 26.2207 6.50006 26.6022 6.50006 27C6.50006 27.3978 6.34203 27.7794 6.06072 28.0607C5.77942 28.342 5.39789 28.5 5.00006 28.5C4.60224 28.5 4.22071 28.342 3.9394 28.0607C3.6581 27.7794 3.50006 27.3978 3.50006 27Z" fill="white"/>
</g>
<defs>
<clipPath id="clip0_13_88">
<rect width="32" height="32" fill="white"/>
</clipPath>
</defs>
</svg>
