<svg width="51" height="51" viewBox="0 0 51 51" fill="none" xmlns="http://www.w3.org/2000/svg">
<g clip-path="url(#clip0_132_33)">
<path d="M36.0586 0H14.9414C6.6895 0 0 6.6895 0 14.9414V36.0586C0 44.3105 6.6895 51 14.9414 51H36.0586C44.3105 51 51 44.3105 51 36.0586V14.9414C51 6.6895 44.3105 0 36.0586 0Z" fill="#1E3050"/>
<path fill-rule="evenodd" clip-rule="evenodd" d="M25.4448 7.4707L32.5248 11.5555V13.8015L41.0942 18.7503V27.2157L43.3929 28.5427V36.7168L36.3176 40.8015L33.1764 38.9849L25.539 43.3944L17.9474 39.0104L14.8503 40.8015L7.77489 36.7098V28.5427L9.98395 27.2674V18.7503L18.3695 13.9093L18.3741 13.9091V11.5555L25.4448 7.4707ZM32.5248 15.9254V19.7249L25.4494 23.8097L18.3741 19.7249V16.0307L18.3695 16.0309L11.8228 19.8123V26.2056L14.8503 24.4579L21.9255 28.5427V36.7098L19.785 37.9477L25.539 41.2705L31.3389 37.9225L29.2422 36.7098V28.5427L36.3176 24.4579L39.2553 26.1539V19.8123L32.5248 15.9254ZM31.0812 35.6571V30.6712L35.3981 33.163V38.1489L31.0812 35.6571ZM41.5539 30.6643L37.2371 33.1562V38.1489L41.5539 35.6502V30.6643ZM9.61384 35.6502V30.6643L13.9308 33.1562V38.1419L9.61384 35.6502ZM20.0866 30.6643L15.7697 33.1562V38.1419L20.0866 35.6502V30.6643ZM32.0007 29.0783L36.3176 26.5865L40.6344 29.0783L36.3176 31.5724L32.0007 29.0783ZM14.8503 26.5796L10.5333 29.0783L14.8503 31.5654L19.1671 29.0783L14.8503 26.5796ZM20.213 18.663V13.6772L24.5253 16.1712V21.1547L20.213 18.663ZM30.6812 13.6772L26.3689 16.1712V21.1524L30.6812 18.663V13.6772ZM21.1325 12.0864L25.4448 9.59468L29.7618 12.0864L25.4448 14.5782L21.1325 12.0864Z" fill="#08141F"/>
</g>
<defs>
<clipPath id="clip0_132_33">
<rect width="51" height="51" fill="white"/>
</clipPath>
</defs>
</svg>
