<svg width="25" height="25" viewBox="0 0 25 25" fill="none" xmlns="http://www.w3.org/2000/svg">
<path fill-rule="evenodd" clip-rule="evenodd" d="M4.03334 4.43646C6.01742 2.54687 9.24408 2.54687 11.2282 4.43646L13.0266 6.14922L14.8249 4.43646L13.0266 2.72374C10.0466 -0.114292 5.21488 -0.114292 2.23495 2.72374C-0.744983 5.56176 -0.744983 10.1634 2.23495 13.0014L4.03334 14.7142L5.83174 13.0014L4.03334 11.2887C2.04927 9.39908 2.04927 6.32606 4.03334 4.43646ZM22.7651 11.9985L20.9667 10.2845L19.1683 11.9985L20.9667 13.7113C22.9495 15.5996 22.9495 18.6739 20.9667 20.5635C18.9826 22.4519 15.7547 22.4519 13.7719 20.5635L11.9735 18.8495L10.1738 20.5635L11.9735 22.2762C14.9534 25.1142 19.7851 25.1142 22.7651 22.2762C25.745 19.4382 25.745 14.8365 22.7651 11.9985ZM6.73092 5.29284L20.0675 17.9931L18.2678 19.7071L4.93252 7.0056L6.73092 5.29284Z" fill="white"/>
</svg>
